<svg xmlns="http://www.w3.org/2000/svg" xmlns:xlink="http://www.w3.org/1999/xlink" width="500" zoomAndPan="magnify" viewBox="0 0 375 374.999991" height="500" preserveAspectRatio="xMidYMid meet" version="1.0"><defs><g/><clipPath id="52402a7e2c"><path d="M 108.890625 128.289062 L 252.890625 128.289062 L 252.890625 267 L 108.890625 267 Z M 108.890625 128.289062 " clip-rule="nonzero"/></clipPath><clipPath id="375438cd4c"><path d="M 226 125 L 249 125 L 249 147 L 226 147 Z M 226 125 " clip-rule="nonzero"/></clipPath><clipPath id="ff95f0a652"><path d="M 114.355469 260.761719 L 232 114.761719 L 259.449219 136.878906 L 141.804688 282.878906 Z M 114.355469 260.761719 " clip-rule="nonzero"/></clipPath><clipPath id="ab0f784977"><path d="M 114.355469 260.761719 L 232 114.761719 L 259.449219 136.878906 L 141.804688 282.878906 Z M 114.355469 260.761719 " clip-rule="nonzero"/></clipPath><clipPath id="79ca648d5c"><path d="M 114.355469 260.761719 L 232 114.761719 L 259.449219 136.878906 L 141.804688 282.878906 Z M 114.355469 260.761719 " clip-rule="nonzero"/></clipPath><clipPath id="d5ea6b9050"><path d="M 226 125 L 249 125 L 249 148 L 226 148 Z M 226 125 " clip-rule="nonzero"/></clipPath><clipPath id="fcb3a68c80"><path d="M 114.355469 260.761719 L 232 114.761719 L 259.449219 136.878906 L 141.804688 282.878906 Z M 114.355469 260.761719 " clip-rule="nonzero"/></clipPath><clipPath id="0e3a4738d4"><path d="M 114.355469 260.761719 L 232 114.761719 L 259.449219 136.878906 L 141.804688 282.878906 Z M 114.355469 260.761719 " clip-rule="nonzero"/></clipPath><clipPath id="c844b86156"><path d="M 114.355469 260.761719 L 232 114.761719 L 259.449219 136.878906 L 141.804688 282.878906 Z M 114.355469 260.761719 " clip-rule="nonzero"/></clipPath><clipPath id="891cdcfda0"><path d="M 124 170 L 212 170 L 212 269 L 124 269 Z M 124 170 " clip-rule="nonzero"/></clipPath><clipPath id="96b5c68779"><path d="M 114.355469 260.761719 L 232 114.761719 L 259.449219 136.878906 L 141.804688 282.878906 Z M 114.355469 260.761719 " clip-rule="nonzero"/></clipPath><clipPath id="03a8a018c5"><path d="M 114.355469 260.761719 L 232 114.761719 L 259.449219 136.878906 L 141.804688 282.878906 Z M 114.355469 260.761719 " clip-rule="nonzero"/></clipPath><clipPath id="0d7135572e"><path d="M 114.355469 260.761719 L 232 114.761719 L 259.449219 136.878906 L 141.804688 282.878906 Z M 114.355469 260.761719 " clip-rule="nonzero"/></clipPath><clipPath id="ddd9fc7164"><path d="M 127 183 L 208 183 L 208 266 L 127 266 Z M 127 183 " clip-rule="nonzero"/></clipPath><clipPath id="7a4890d1a1"><path d="M 114.355469 260.761719 L 232 114.761719 L 259.449219 136.878906 L 141.804688 282.878906 Z M 114.355469 260.761719 " clip-rule="nonzero"/></clipPath><clipPath id="bffb4f7a04"><path d="M 114.355469 260.761719 L 232 114.761719 L 259.449219 136.878906 L 141.804688 282.878906 Z M 114.355469 260.761719 " clip-rule="nonzero"/></clipPath><clipPath id="6a9d8af419"><path d="M 114.355469 260.761719 L 232 114.761719 L 259.449219 136.878906 L 141.804688 282.878906 Z M 114.355469 260.761719 " clip-rule="nonzero"/></clipPath><clipPath id="9ede059059"><path d="M 210 152 L 224 152 L 224 171 L 210 171 Z M 210 152 " clip-rule="nonzero"/></clipPath><clipPath id="7296a3e92f"><path d="M 114.355469 260.761719 L 232 114.761719 L 259.449219 136.878906 L 141.804688 282.878906 Z M 114.355469 260.761719 " clip-rule="nonzero"/></clipPath><clipPath id="201e8503ee"><path d="M 114.355469 260.761719 L 232 114.761719 L 259.449219 136.878906 L 141.804688 282.878906 Z M 114.355469 260.761719 " clip-rule="nonzero"/></clipPath><clipPath id="ba7b30196e"><path d="M 114.355469 260.761719 L 232 114.761719 L 259.449219 136.878906 L 141.804688 282.878906 Z M 114.355469 260.761719 " clip-rule="nonzero"/></clipPath><clipPath id="7ddf3a18ea"><path d="M 207 155 L 216 155 L 216 163 L 207 163 Z M 207 155 " clip-rule="nonzero"/></clipPath><clipPath id="c61a07d890"><path d="M 114.355469 260.761719 L 232 114.761719 L 259.449219 136.878906 L 141.804688 282.878906 Z M 114.355469 260.761719 " clip-rule="nonzero"/></clipPath><clipPath id="75154dfe32"><path d="M 114.355469 260.761719 L 232 114.761719 L 259.449219 136.878906 L 141.804688 282.878906 Z M 114.355469 260.761719 " clip-rule="nonzero"/></clipPath><clipPath id="fec4738716"><path d="M 114.355469 260.761719 L 232 114.761719 L 259.449219 136.878906 L 141.804688 282.878906 Z M 114.355469 260.761719 " clip-rule="nonzero"/></clipPath><clipPath id="1991580903"><path d="M 231 143 L 240 143 L 240 151 L 231 151 Z M 231 143 " clip-rule="nonzero"/></clipPath><clipPath id="22cd05d71b"><path d="M 114.355469 260.761719 L 232 114.761719 L 259.449219 136.878906 L 141.804688 282.878906 Z M 114.355469 260.761719 " clip-rule="nonzero"/></clipPath><clipPath id="fe28ff13d5"><path d="M 114.355469 260.761719 L 232 114.761719 L 259.449219 136.878906 L 141.804688 282.878906 Z M 114.355469 260.761719 " clip-rule="nonzero"/></clipPath><clipPath id="2053f018af"><path d="M 114.355469 260.761719 L 232 114.761719 L 259.449219 136.878906 L 141.804688 282.878906 Z M 114.355469 260.761719 " clip-rule="nonzero"/></clipPath><clipPath id="ef66b2e206"><path d="M 212 149 L 226 149 L 226 168 L 212 168 Z M 212 149 " clip-rule="nonzero"/></clipPath><clipPath id="fe8a88a16b"><path d="M 114.355469 260.761719 L 232 114.761719 L 259.449219 136.878906 L 141.804688 282.878906 Z M 114.355469 260.761719 " clip-rule="nonzero"/></clipPath><clipPath id="5c7ee0f7a2"><path d="M 114.355469 260.761719 L 232 114.761719 L 259.449219 136.878906 L 141.804688 282.878906 Z M 114.355469 260.761719 " clip-rule="nonzero"/></clipPath><clipPath id="6c4c18b64f"><path d="M 114.355469 260.761719 L 232 114.761719 L 259.449219 136.878906 L 141.804688 282.878906 Z M 114.355469 260.761719 " clip-rule="nonzero"/></clipPath><clipPath id="5f1cbc63cc"><path d="M 215 146 L 229 146 L 229 164 L 215 164 Z M 215 146 " clip-rule="nonzero"/></clipPath><clipPath id="59f1616c34"><path d="M 114.355469 260.761719 L 232 114.761719 L 259.449219 136.878906 L 141.804688 282.878906 Z M 114.355469 260.761719 " clip-rule="nonzero"/></clipPath><clipPath id="ab5c5d6247"><path d="M 114.355469 260.761719 L 232 114.761719 L 259.449219 136.878906 L 141.804688 282.878906 Z M 114.355469 260.761719 " clip-rule="nonzero"/></clipPath><clipPath id="e61b0ee781"><path d="M 114.355469 260.761719 L 232 114.761719 L 259.449219 136.878906 L 141.804688 282.878906 Z M 114.355469 260.761719 " clip-rule="nonzero"/></clipPath><clipPath id="62d1bf7f91"><path d="M 218 142 L 231 142 L 231 161 L 218 161 Z M 218 142 " clip-rule="nonzero"/></clipPath><clipPath id="22a7c41037"><path d="M 114.355469 260.761719 L 232 114.761719 L 259.449219 136.878906 L 141.804688 282.878906 Z M 114.355469 260.761719 " clip-rule="nonzero"/></clipPath><clipPath id="540966a5e8"><path d="M 114.355469 260.761719 L 232 114.761719 L 259.449219 136.878906 L 141.804688 282.878906 Z M 114.355469 260.761719 " clip-rule="nonzero"/></clipPath><clipPath id="6dd8d27af4"><path d="M 114.355469 260.761719 L 232 114.761719 L 259.449219 136.878906 L 141.804688 282.878906 Z M 114.355469 260.761719 " clip-rule="nonzero"/></clipPath><clipPath id="4295479708"><path d="M 221 139 L 234 139 L 234 158 L 221 158 Z M 221 139 " clip-rule="nonzero"/></clipPath><clipPath id="0c162ae6d2"><path d="M 114.355469 260.761719 L 232 114.761719 L 259.449219 136.878906 L 141.804688 282.878906 Z M 114.355469 260.761719 " clip-rule="nonzero"/></clipPath><clipPath id="7d5630024b"><path d="M 114.355469 260.761719 L 232 114.761719 L 259.449219 136.878906 L 141.804688 282.878906 Z M 114.355469 260.761719 " clip-rule="nonzero"/></clipPath><clipPath id="2d3ac2e3d9"><path d="M 114.355469 260.761719 L 232 114.761719 L 259.449219 136.878906 L 141.804688 282.878906 Z M 114.355469 260.761719 " clip-rule="nonzero"/></clipPath><clipPath id="0dfb04d02a"><path d="M 223 136 L 237 136 L 237 154 L 223 154 Z M 223 136 " clip-rule="nonzero"/></clipPath><clipPath id="30bc967be2"><path d="M 114.355469 260.761719 L 232 114.761719 L 259.449219 136.878906 L 141.804688 282.878906 Z M 114.355469 260.761719 " clip-rule="nonzero"/></clipPath><clipPath id="3c8bc1933a"><path d="M 114.355469 260.761719 L 232 114.761719 L 259.449219 136.878906 L 141.804688 282.878906 Z M 114.355469 260.761719 " clip-rule="nonzero"/></clipPath><clipPath id="f78ebdf3a0"><path d="M 114.355469 260.761719 L 232 114.761719 L 259.449219 136.878906 L 141.804688 282.878906 Z M 114.355469 260.761719 " clip-rule="nonzero"/></clipPath><clipPath id="2475bc5a0d"><path d="M 191 159 L 221 159 L 221 188 L 191 188 Z M 191 159 " clip-rule="nonzero"/></clipPath><clipPath id="56616373ef"><path d="M 114.355469 260.761719 L 232 114.761719 L 259.449219 136.878906 L 141.804688 282.878906 Z M 114.355469 260.761719 " clip-rule="nonzero"/></clipPath><clipPath id="4ea3217d3d"><path d="M 114.355469 260.761719 L 232 114.761719 L 259.449219 136.878906 L 141.804688 282.878906 Z M 114.355469 260.761719 " clip-rule="nonzero"/></clipPath><clipPath id="0676ef31be"><path d="M 114.355469 260.761719 L 232 114.761719 L 259.449219 136.878906 L 141.804688 282.878906 Z M 114.355469 260.761719 " clip-rule="nonzero"/></clipPath><clipPath id="668ea8183b"><path d="M 190 158 L 221 158 L 221 189 L 190 189 Z M 190 158 " clip-rule="nonzero"/></clipPath><clipPath id="1a01df0d71"><path d="M 114.355469 260.761719 L 232 114.761719 L 259.449219 136.878906 L 141.804688 282.878906 Z M 114.355469 260.761719 " clip-rule="nonzero"/></clipPath><clipPath id="16837c28c4"><path d="M 114.355469 260.761719 L 232 114.761719 L 259.449219 136.878906 L 141.804688 282.878906 Z M 114.355469 260.761719 " clip-rule="nonzero"/></clipPath><clipPath id="4677ca68d1"><path d="M 114.355469 260.761719 L 232 114.761719 L 259.449219 136.878906 L 141.804688 282.878906 Z M 114.355469 260.761719 " clip-rule="nonzero"/></clipPath><clipPath id="1540171de0"><path d="M 49.433594 49.433594 L 325.433594 49.433594 L 325.433594 325.433594 L 49.433594 325.433594 Z M 49.433594 49.433594 " clip-rule="nonzero"/></clipPath><clipPath id="41edc0f805"><path d="M 270.992188 180.777344 L 338 180.777344 L 338 208.394531 L 270.992188 208.394531 Z M 270.992188 180.777344 " clip-rule="nonzero"/></clipPath><clipPath id="500e90ab9f"><path d="M 320.875 180.777344 L 270.992188 180.777344 L 270.992188 208.335938 L 320.875 208.335938 L 337.5 194.554688 L 320.875 180.777344 " clip-rule="nonzero"/></clipPath><clipPath id="f55f6d067b"><path d="M 37 180.710938 L 104.003906 180.710938 L 104.003906 208.328125 L 37 208.328125 Z M 37 180.710938 " clip-rule="nonzero"/></clipPath><clipPath id="8324d594fe"><path d="M 54.125 208.328125 L 104.003906 208.328125 L 104.003906 180.769531 L 54.125 180.769531 L 37.496094 194.546875 L 54.125 208.328125 " clip-rule="nonzero"/></clipPath></defs><g clip-path="url(#52402a7e2c)"><path fill="#000000" d="M 153.789062 128.339844 L 153.882812 129.222656 C 153.882812 129.234375 153.988281 130.429688 152.085938 132.425781 C 150.894531 133.671875 148.769531 135.617188 146.09375 137.902344 C 146.074219 137.921875 146.058594 137.9375 146.039062 137.953125 C 145.820312 137.953125 145.222656 137.933594 144.640625 137.914062 C 144.363281 137.90625 144.105469 137.894531 143.867188 137.890625 C 143.492188 137.441406 142.738281 136.589844 142.089844 136.199219 C 141.1875 135.660156 138.832031 137.882812 137.441406 139.050781 C 136.050781 140.222656 134.707031 141.59375 134.8125 142.457031 C 134.910156 143.238281 136.375 144.554688 136.660156 144.800781 L 136.742188 145.109375 L 136.765625 145.167969 C 136.78125 145.203125 137.199219 146.0625 136.417969 146.800781 C 136.285156 146.925781 122.980469 159.449219 117.863281 162.691406 C 113.902344 165.207031 112.25 165.714844 110.503906 166.25 C 110.078125 166.378906 109.644531 166.515625 109.175781 166.675781 L 108.890625 166.773438 L 108.988281 167.058594 C 109.023438 167.148438 112.363281 176.300781 124.605469 184.328125 C 136.847656 192.347656 149.523438 191.644531 149.648438 191.636719 L 150.125 191.605469 L 149.890625 191.191406 C 149.875 191.167969 148.523438 188.777344 148.230469 185.46875 L 148.222656 185.375 L 148.160156 185.304688 C 147.824219 184.90625 146.949219 183.695312 146.917969 182.84375 L 146.914062 182.703125 L 146.800781 182.613281 C 146.71875 182.550781 138.441406 176.253906 137.988281 167.394531 C 137.566406 159.144531 142.171875 154.109375 143.855469 153.03125 C 144.886719 154.136719 150.015625 159.65625 154.0625 164.707031 C 155.710938 166.761719 158.652344 170.566406 162.054688 174.976562 C 168.171875 182.898438 175.78125 192.753906 180.9375 198.992188 C 188.921875 208.65625 203.050781 221.925781 203.191406 222.0625 L 203.269531 222.132812 L 203.441406 222.09375 C 203.515625 222.378906 203.84375 222.871094 203.976562 223.101562 C 204.023438 223.179688 204.289062 223.214844 204.660156 223.234375 L 208.089844 226.570312 C 208.019531 226.789062 207.941406 226.71875 207.941406 226.71875 C 208.265625 227.738281 210.289062 229.125 210.601562 228.894531 L 211.179688 229.414062 C 211.117188 229.433594 211.078125 229.445312 211.078125 229.445312 L 212.425781 230.988281 C 212.425781 230.988281 212.585938 230.972656 212.765625 230.921875 C 213.042969 231.210938 213.894531 232.117188 214.15625 232.382812 C 214.136719 232.425781 214.128906 232.457031 214.125 232.46875 C 214.121094 232.539062 215.121094 233.523438 215.179688 233.605469 C 215.238281 233.691406 215.5 233.464844 215.574219 233.425781 L 216.929688 234.71875 C 216.921875 234.722656 216.914062 234.726562 216.914062 234.726562 C 216.914062 234.726562 217.414062 235.824219 217.628906 235.996094 C 217.84375 236.164062 218.523438 236.625 218.523438 236.625 C 218.523438 236.625 219.125 236.449219 219.125 236.503906 C 219.125 236.558594 218.882812 236.945312 219.03125 237.179688 C 219.175781 237.414062 220.9375 239.316406 221.011719 239.335938 C 221.046875 239.347656 221.097656 239.257812 221.148438 239.15625 L 221.898438 239.941406 C 221.773438 239.984375 221.6875 240.027344 221.683594 240.0625 C 221.652344 240.199219 222.84375 241.410156 222.953125 241.539062 C 223.058594 241.667969 223.65625 242.039062 223.679688 242.054688 C 223.683594 242.058594 223.75 242.03125 223.847656 241.988281 L 225.414062 243.6875 C 225.402344 243.832031 225.40625 243.964844 225.4375 243.992188 C 225.507812 244.046875 226.777344 245.398438 226.820312 245.386719 C 226.824219 245.386719 226.832031 245.359375 226.84375 245.3125 L 227.859375 246.5 C 227.816406 246.535156 227.789062 246.566406 227.792969 246.585938 C 227.796875 246.707031 228.238281 247.074219 228.414062 247.496094 C 228.59375 247.914062 229.117188 247.972656 229.199219 247.964844 C 229.207031 247.964844 229.222656 247.957031 229.246094 247.945312 L 230.605469 249.5 C 230.605469 249.632812 230.613281 250.15625 230.683594 250.21875 C 230.765625 250.285156 231.859375 251.195312 231.921875 251.171875 C 231.925781 251.167969 231.933594 251.152344 231.945312 251.125 C 232.363281 251.554688 233.652344 252.96875 235.167969 255.5 C 237.019531 258.597656 238.394531 262.363281 238.644531 263.832031 C 238.890625 265.308594 241.984375 264.636719 245.703125 266.207031 C 249.421875 267.769531 252.894531 266.640625 252.378906 264.503906 C 251.867188 262.375 250.40625 259.617188 249.460938 257.515625 C 248.511719 255.414062 245.789062 252.980469 243.527344 250.410156 C 241.523438 248.132812 239.417969 245.597656 238.96875 245.046875 L 239.113281 245.007812 C 239.113281 245.007812 238.738281 244.402344 238.492188 243.992188 C 238.246094 243.578125 237.515625 242.914062 237.367188 242.988281 C 237.339844 243 237.289062 243.015625 237.214844 243.039062 C 236.863281 242.699219 235.550781 241.429688 235.230469 241.113281 C 235.203125 241.035156 235.171875 240.980469 235.171875 240.980469 C 235.171875 240.980469 234.050781 239.832031 234.015625 239.8125 C 234.007812 239.808594 233.992188 239.820312 233.964844 239.839844 L 233.480469 239.253906 C 233.503906 239.246094 233.519531 239.246094 233.519531 239.246094 C 233.519531 239.246094 233.40625 238.644531 233.082031 238.414062 C 232.757812 238.1875 232.058594 237.59375 232.058594 237.59375 C 232.058594 237.59375 231.964844 237.625 231.820312 237.671875 L 229.203125 235.058594 C 229.210938 234.988281 229.214844 234.9375 229.210938 234.925781 C 229.171875 234.84375 228.078125 233.683594 228.035156 233.710938 C 228.015625 233.722656 227.953125 233.867188 227.894531 234.027344 L 227.621094 233.734375 C 227.621094 233.734375 227.628906 233.730469 227.628906 233.730469 C 227.675781 233.707031 227.679688 233.292969 227.554688 233.164062 C 227.429688 233.03125 226.542969 231.996094 226.460938 232.003906 C 226.4375 232.003906 226.238281 232.058594 225.953125 232.132812 C 225.53125 231.785156 224.132812 230.625 223.40625 230.003906 C 223.480469 229.855469 223.519531 229.765625 223.488281 229.695312 C 223.433594 229.582031 222.257812 228.503906 222.195312 228.457031 C 222.128906 228.410156 221.800781 228.347656 221.644531 228.496094 C 221.625 228.511719 221.609375 228.542969 221.589844 228.570312 L 221.265625 228.234375 C 221.265625 228.050781 221.265625 227.714844 221.222656 227.628906 C 221.160156 227.507812 220.285156 226.464844 220.222656 226.398438 C 220.160156 226.335938 219.640625 226.253906 219.640625 226.253906 L 219.386719 226.351562 L 217.996094 224.933594 C 218.019531 224.824219 218.035156 224.746094 218.035156 224.734375 C 218.035156 224.679688 217.40625 223.972656 217.128906 223.683594 C 216.855469 223.394531 216.242188 222.988281 216.222656 223.042969 C 216.222656 223.046875 216.21875 223.058594 216.214844 223.074219 L 215.414062 222.328125 C 215.457031 222.171875 214.597656 221.324219 214.328125 220.929688 C 214.019531 220.488281 213.585938 220.164062 213.394531 220.148438 C 213.351562 220.144531 213.125 220.175781 212.8125 220.226562 L 210.605469 218.144531 C 210.613281 218.132812 210.617188 218.121094 210.625 218.113281 C 210.804688 217.910156 210.667969 217.234375 210.222656 216.800781 C 209.867188 216.453125 209.179688 216.433594 208.910156 216.441406 L 208.90625 216.4375 C 208.773438 216.296875 195.160156 202.132812 191.691406 198.175781 C 188.132812 194.113281 178.609375 181.929688 174.9375 175.929688 L 174.375 175.015625 C 171.003906 169.511719 168.09375 164.757812 163.386719 158.691406 C 158.75 152.710938 152.648438 145.921875 151.953125 145.148438 C 151.949219 144.929688 151.957031 144.710938 151.984375 144.492188 C 152.113281 143.613281 152.753906 142.9375 153.742188 142.632812 C 154.972656 142.253906 156.796875 142.519531 158.105469 143.953125 L 158.226562 144.085938 L 158.40625 144.035156 C 159.484375 143.726562 161.414062 142.605469 160.988281 140.59375 C 160.484375 138.222656 157.335938 132.066406 154.410156 128.964844 Z M 135.269531 141.957031 C 135.328125 141.5625 137.390625 139.691406 138.144531 138.941406 C 138.898438 138.195312 140.917969 136.6875 141.703125 136.671875 C 142.269531 136.660156 143.261719 137.445312 143.777344 137.886719 C 140.550781 137.792969 140.132812 137.839844 139.957031 137.980469 C 139.835938 138.082031 139.582031 138.285156 139.992188 141.476562 L 135.765625 141.460938 L 136.640625 144.730469 C 136.355469 144.242188 135.222656 142.300781 135.269531 141.957031 Z M 149.148438 191.054688 C 146.777344 191.097656 135.6875 190.878906 124.9375 183.828125 C 114.074219 176.707031 110.328125 168.722656 109.667969 167.140625 C 110.019531 167.023438 110.355469 166.921875 110.683594 166.820312 C 111.589844 166.542969 112.46875 166.273438 113.636719 165.746094 C 113.546875 166.320312 113.617188 169.332031 122.664062 176.097656 C 132.089844 183.148438 145.636719 185.195312 147.523438 185.449219 C 147.578125 185.519531 147.617188 185.570312 147.652344 185.613281 C 147.894531 188.210938 148.738281 190.214844 149.148438 191.054688 Z M 138.035156 161.246094 C 132.703125 161.054688 129.378906 155.351562 128.898438 154.476562 C 131.097656 152.519531 133.144531 150.652344 134.605469 149.304688 L 140.714844 155.484375 C 140.480469 155.820312 140.242188 156.179688 140.015625 156.5625 C 139.3125 157.730469 138.558594 159.300781 138.035156 161.246094 Z M 206.332031 224.457031 C 206.082031 224.164062 205.351562 223.5 205.0625 223.246094 C 206.21875 223.253906 207.863281 223.136719 207.863281 223.136719 C 207.863281 223.136719 208.207031 224.824219 208.167969 225.859375 C 208.164062 225.976562 208.15625 226.078125 208.148438 226.164062 C 207.742188 225.800781 206.585938 224.757812 206.332031 224.457031 Z M 213.855469 231.777344 C 213.722656 231.707031 213.394531 231.1875 213.359375 231.125 C 213.328125 231.082031 213.132812 230.894531 213.015625 230.820312 C 213.078125 230.785156 213.140625 230.753906 213.183594 230.707031 C 213.429688 230.476562 214.664062 230.292969 214.664062 230.292969 C 214.664062 230.292969 214.683594 230.914062 214.636719 231.207031 C 214.609375 231.386719 214.425781 231.777344 214.285156 232.074219 C 214.15625 231.980469 213.941406 231.828125 213.855469 231.777344 Z M 215.371094 233.292969 C 215.347656 233.273438 214.636719 232.617188 214.609375 232.5 C 214.585938 232.378906 214.585938 231.964844 214.585938 231.964844 C 214.585938 231.964844 214.855469 231.15625 214.894531 230.894531 C 214.933594 230.636719 215 230.222656 215.054688 230.164062 C 215.113281 230.097656 216.738281 229.804688 216.738281 229.804688 C 216.738281 229.804688 216.222656 230.875 216.105469 231.414062 C 215.992188 231.949219 216.042969 232.289062 215.859375 232.554688 C 215.679688 232.820312 215.394531 233.316406 215.371094 233.292969 Z M 218.210938 236.136719 C 218.183594 236.113281 217.464844 235.097656 217.457031 235.050781 C 217.449219 235.007812 218.453125 234.59375 218.601562 234.507812 C 218.75 234.421875 220.480469 233.859375 220.527344 233.851562 C 220.574219 233.84375 220.828125 232.339844 221.011719 232.0625 C 221.191406 231.78125 221.460938 229.875 221.460938 229.875 C 221.460938 229.875 222.226562 229.683594 222.289062 229.714844 C 222.351562 229.746094 222.859375 229.996094 222.875 230.105469 C 222.890625 230.214844 222.125 232.898438 222.09375 233.320312 C 222.0625 233.742188 222.167969 234.476562 222.167969 234.476562 C 222.167969 234.476562 222.625 233.566406 222.757812 233.496094 C 222.890625 233.429688 225.230469 232.589844 225.410156 232.628906 C 225.59375 232.671875 226.132812 232.507812 226.144531 232.6875 C 226.15625 232.871094 225.585938 233.320312 225.699219 233.445312 C 225.816406 233.566406 226.210938 233.78125 226.15625 233.851562 C 226.097656 233.925781 222.171875 235.273438 221.976562 235.386719 C 221.78125 235.5 219.589844 235.820312 219.046875 235.960938 C 218.5 236.101562 218.238281 236.164062 218.210938 236.136719 Z M 219.636719 236.988281 L 219.316406 236.328125 C 219.363281 236.300781 221.722656 235.894531 221.722656 235.894531 C 221.722656 235.894531 221.203125 237.363281 221.304688 237.621094 C 221.40625 237.878906 221.171875 238.726562 221.171875 238.726562 C 221.171875 238.726562 220.523438 238.285156 220.425781 238.199219 C 220.328125 238.113281 219.636719 236.988281 219.636719 236.988281 Z M 224.828125 242.8125 L 224.117188 241.867188 C 224.726562 241.589844 225.75 241.117188 225.851562 241.144531 C 225.996094 241.179688 225.640625 243.144531 225.527344 243.277344 C 225.503906 243.308594 225.480469 243.359375 225.460938 243.421875 Z M 226.609375 244.621094 C 226.519531 244.824219 225.921875 243.933594 225.847656 243.785156 C 225.777344 243.640625 225.683594 243.316406 225.824219 243.078125 C 225.957031 242.839844 226.109375 241.230469 226.148438 241.167969 C 226.183594 241.109375 227.609375 240.710938 227.609375 240.710938 C 227.609375 240.710938 227.207031 242.800781 227.148438 242.964844 C 227.085938 243.128906 226.699219 244.417969 226.609375 244.621094 Z M 234.84375 241.464844 C 234.816406 241.605469 234.179688 243.507812 234.121094 243.65625 C 234.058594 243.804688 233.289062 245.960938 233.222656 246.128906 C 233.15625 246.296875 231.980469 249.332031 231.925781 249.527344 C 231.871094 249.722656 231.59375 250.519531 231.527344 250.453125 C 231.457031 250.378906 231.144531 250.046875 231.117188 249.796875 C 231.09375 249.539062 231.167969 248.773438 231.367188 248.382812 C 231.5625 248 231.675781 246.300781 231.675781 246.300781 C 231.675781 246.300781 231.234375 246.601562 230.984375 246.703125 C 230.730469 246.804688 230.289062 247.101562 230.160156 247.117188 C 230.027344 247.132812 229.15625 247.285156 229.101562 247.15625 C 229.042969 247.023438 229.410156 246.191406 229.398438 246.152344 C 229.386719 246.109375 228.5625 246.539062 228.507812 246.484375 C 228.457031 246.425781 228.796875 246.09375 229.238281 245.957031 C 229.683594 245.816406 231.925781 244.664062 231.925781 244.664062 C 231.925781 244.664062 233.152344 241.761719 233.265625 241.480469 C 233.378906 241.203125 233.519531 241.214844 233.621094 240.96875 C 233.722656 240.722656 234.183594 240.503906 234.347656 240.660156 C 234.507812 240.820312 234.871094 241.320312 234.84375 241.464844 Z M 237.203125 243.421875 C 237.332031 243.726562 236.863281 244.007812 236.75 244.0625 C 236.636719 244.113281 237.625 244.480469 237.742188 244.519531 C 237.859375 244.554688 238.570312 244.761719 238.136719 244.878906 C 237.699219 244.996094 235.792969 244.898438 235.6875 244.976562 C 235.582031 245.046875 233.820312 245.574219 233.820312 245.574219 C 233.820312 245.574219 234.128906 243.960938 234.390625 243.914062 C 234.652344 243.863281 237.074219 243.117188 237.203125 243.421875 Z M 231.019531 248.101562 L 230.339844 247.394531 C 230.847656 247.136719 231.328125 246.886719 231.351562 246.902344 C 231.371094 246.914062 231.203125 247.496094 231.019531 248.101562 Z M 230.089844 247.523438 L 230.933594 248.386719 C 230.835938 248.710938 230.742188 249.019531 230.675781 249.226562 C 230.578125 249.136719 230.433594 248.984375 230.296875 248.808594 C 230.121094 248.582031 229.671875 248.078125 229.460938 247.851562 C 229.628906 247.761719 229.851562 247.644531 230.089844 247.523438 Z M 241.464844 248.75 C 242.058594 249.523438 244.539062 252.609375 246.023438 253.957031 C 247.507812 255.308594 249.6875 258.382812 249.8125 259.734375 C 249.9375 261.082031 250.910156 263.078125 251.339844 263.585938 C 251.765625 264.097656 251.886719 266.007812 250.984375 266.242188 C 250.082031 266.476562 246.800781 266.421875 243.984375 264.964844 C 241.164062 263.507812 239.34375 264.179688 239.152344 263.722656 C 238.960938 263.261719 236.277344 255.855469 234.417969 253.628906 C 233.027344 251.960938 232.296875 251.109375 232.015625 250.78125 C 232.132812 250.234375 232.300781 249.285156 232.332031 249.230469 C 232.382812 249.148438 233.546875 246.019531 233.566406 245.984375 C 233.585938 245.949219 235.703125 245.324219 235.703125 245.324219 L 238.476562 245.1875 L 238.546875 245.167969 C 239.066406 245.796875 240.949219 248.085938 241.464844 248.75 Z M 235.695312 243.40625 C 235.261719 243.472656 234.34375 243.667969 234.34375 243.667969 C 234.34375 243.667969 234.902344 241.808594 235.144531 241.59375 C 235.160156 241.582031 235.171875 241.566406 235.183594 241.546875 C 235.40625 241.761719 236.09375 242.335938 236.175781 242.421875 C 236.25 242.5 236.761719 242.910156 237.003906 243.109375 C 236.605469 243.214844 235.996094 243.359375 235.695312 243.40625 Z M 233.871094 239.933594 C 233.71875 240.09375 233.472656 240.40625 233.394531 240.664062 C 233.285156 241.039062 231.84375 244.515625 231.84375 244.515625 L 228.972656 245.777344 C 228.972656 245.777344 228.578125 246.007812 228.25 246.226562 C 228.113281 246.136719 227.84375 245.960938 227.695312 245.667969 C 227.550781 245.390625 227.160156 244.964844 226.976562 244.773438 C 227.082031 244.320312 227.210938 243.773438 227.25 243.703125 C 227.3125 243.589844 227.949219 240.664062 227.949219 240.664062 C 227.949219 240.664062 230.546875 239.621094 230.859375 239.699219 C 231.109375 239.761719 232.675781 239.433594 233.277344 239.304688 C 233.390625 239.445312 233.585938 239.691406 233.613281 239.800781 C 233.640625 239.878906 233.765625 239.914062 233.871094 239.933594 Z M 233.183594 239.089844 C 233.195312 239.214844 231.589844 239.382812 231.398438 239.332031 C 231.207031 239.289062 229.734375 239.792969 229.652344 239.789062 C 229.566406 239.785156 227.847656 240.296875 227.640625 240.363281 C 227.433594 240.425781 224.597656 241.425781 224.429688 241.253906 C 224.265625 241.074219 223.199219 241.332031 223.070312 241.09375 C 222.941406 240.855469 222.386719 240.242188 222.421875 240.195312 C 222.453125 240.152344 226.859375 239.015625 226.859375 239.015625 C 226.859375 239.015625 227.570312 236.199219 227.644531 235.964844 C 227.71875 235.734375 228.6875 235.527344 228.769531 235.640625 C 228.847656 235.753906 228.417969 237.480469 228.378906 237.621094 C 228.34375 237.761719 227.964844 239.304688 227.964844 239.304688 L 228.492188 238.703125 L 230.035156 238.570312 C 230.035156 238.570312 232.175781 238.050781 232.355469 238.1875 C 232.539062 238.320312 233.175781 238.964844 233.183594 239.089844 Z M 229.851562 236.0625 C 230.03125 236.238281 231.453125 237.59375 231.480469 237.691406 C 231.488281 237.71875 231.507812 237.746094 231.53125 237.765625 C 230.9375 237.960938 230.023438 238.25 229.875 238.269531 C 229.648438 238.296875 228.519531 238.492188 228.519531 238.492188 C 228.519531 238.492188 228.855469 236.722656 228.886719 236.640625 C 228.90625 236.582031 229.054688 235.875 229.140625 235.382812 C 229.328125 235.5625 229.714844 235.929688 229.851562 236.0625 Z M 227.804688 234.257812 C 227.789062 234.3125 227.773438 234.359375 227.769531 234.390625 C 227.734375 234.570312 227.050781 237.242188 227.050781 237.242188 L 226.757812 238.832031 C 226.757812 238.832031 223.546875 239.519531 223.210938 239.601562 C 222.996094 239.648438 222.453125 239.769531 222.074219 239.886719 L 221.65625 239.464844 L 221.226562 238.996094 C 221.242188 238.964844 221.253906 238.9375 221.265625 238.921875 C 221.324219 238.851562 222.070312 235.675781 222.070312 235.675781 C 222.070312 235.675781 224.472656 234.691406 225.007812 234.5625 C 225.457031 234.453125 226.941406 233.96875 227.449219 233.800781 Z M 223.316406 230.160156 L 225.722656 232.195312 C 224.9375 232.410156 223.757812 232.757812 223.460938 232.917969 C 223.011719 233.164062 222.527344 233.300781 222.527344 233.300781 C 222.527344 233.300781 222.984375 230.839844 223.191406 230.417969 C 223.230469 230.316406 223.277344 230.234375 223.316406 230.160156 Z M 221.203125 229.882812 C 221.101562 230.246094 220.578125 232.71875 220.527344 232.851562 C 220.480469 232.988281 220.382812 233.644531 220.382812 233.644531 C 220.382812 233.644531 218.34375 234.464844 217.886719 234.433594 C 217.597656 234.414062 217.28125 234.539062 217.089844 234.632812 C 216.792969 234.335938 216.234375 233.773438 216.214844 233.734375 C 216.1875 233.699219 215.839844 233.410156 215.683594 233.28125 C 215.886719 232.984375 216.265625 232.328125 216.265625 232.328125 L 216.984375 229.636719 C 216.984375 229.636719 217.226562 229.476562 217.535156 229.332031 C 217.824219 229.191406 220.082031 228.09375 220.554688 227.859375 L 221.390625 228.835938 L 221.476562 228.824219 C 221.367188 229.160156 221.269531 229.636719 221.203125 229.882812 Z M 219.933594 226.546875 C 220.058594 226.667969 220.449219 227.488281 220.449219 227.488281 L 218.925781 228.539062 C 218.925781 228.539062 216.847656 229.109375 215.992188 229.476562 C 215.132812 229.84375 213.386719 230.316406 213.191406 230.445312 C 212.996094 230.578125 212.550781 230.769531 212.472656 230.632812 C 212.390625 230.492188 211.730469 229.765625 211.722656 229.738281 C 211.710938 229.710938 212.761719 229.171875 212.925781 229.03125 C 213.085938 228.894531 215.105469 228.285156 215.511719 227.953125 C 215.917969 227.621094 215.910156 225.589844 215.945312 225.328125 C 215.980469 225.066406 216.492188 223.769531 216.492188 223.769531 C 216.492188 223.769531 216.949219 224.421875 217.113281 224.617188 C 217.28125 224.808594 217.664062 224.644531 217.640625 224.890625 C 217.621094 225.136719 216.96875 228.492188 216.96875 228.492188 C 216.96875 228.492188 217.480469 227.636719 217.554688 227.472656 C 217.632812 227.308594 218.027344 227.09375 218.027344 227.09375 C 218.027344 227.09375 219.804688 226.425781 219.933594 226.546875 Z M 218.410156 225.546875 C 218.476562 225.703125 219.027344 226.269531 219.1875 226.433594 L 217.527344 227.082031 C 217.527344 227.082031 217.753906 226.003906 217.902344 225.3125 C 218.042969 225.335938 218.355469 225.402344 218.410156 225.546875 Z M 215.722656 225.167969 C 215.660156 225.496094 215.542969 227.847656 215.296875 227.808594 C 215.050781 227.773438 213.574219 228.4375 213.28125 228.621094 C 213.0625 228.761719 211.925781 229.152344 211.371094 229.339844 L 211.375 229.242188 L 210.652344 228.578125 C 210.671875 227.550781 210.066406 224.3125 210.007812 223.015625 C 210.007812 223 210.007812 222.984375 210.007812 222.964844 C 210.703125 222.875 213.613281 222.503906 214.816406 222.394531 C 215.097656 222.636719 215.59375 223.070312 215.777344 223.222656 C 215.902344 223.328125 215.996094 223.492188 216.066406 223.617188 C 215.945312 224.167969 215.765625 224.953125 215.722656 225.167969 Z M 213.464844 220.40625 C 213.582031 220.527344 214.246094 220.988281 214.109375 221.207031 C 213.972656 221.421875 213.632812 222.117188 213.601562 222.179688 C 213.578125 222.234375 210.632812 222.679688 210.007812 222.773438 C 210.003906 222.28125 210.046875 221.65625 210.105469 221.027344 C 210.773438 220.882812 213.363281 220.296875 213.464844 220.40625 Z M 212.199219 219.988281 C 212.363281 220.160156 212.539062 220.234375 212.664062 220.261719 C 211.828125 220.398438 210.523438 220.628906 210.140625 220.695312 C 210.257812 219.65625 210.421875 218.660156 210.539062 218.28125 C 210.835938 218.582031 211.941406 219.710938 212.199219 219.988281 Z M 208.941406 216.625 L 208.957031 216.527344 L 208.910156 216.476562 C 209.316406 216.582031 210.144531 217.28125 210.277344 217.550781 C 210.421875 217.855469 209.988281 219.171875 209.847656 219.949219 C 209.703125 220.722656 209.628906 223.023438 209.671875 223.675781 C 209.71875 224.328125 210.085938 227.929688 209.898438 228.164062 C 209.710938 228.398438 208.433594 227.214844 208.398438 226.855469 C 208.363281 226.496094 208.257812 223.210938 208.230469 223.109375 C 208.207031 223.007812 209.5625 222.730469 209.484375 222.660156 C 209.40625 222.59375 204.949219 222.914062 204.539062 222.855469 C 204.257812 222.8125 203.914062 222.296875 203.679688 222.035156 L 208.464844 220.90625 L 208.480469 220.765625 C 208.480469 220.730469 208.808594 217.402344 208.941406 216.625 Z M 163.054688 158.949219 C 164.480469 160.789062 165.742188 162.503906 166.902344 164.160156 C 167.492188 165.738281 170.511719 171.683594 171.351562 173.351562 C 172.375 175.378906 179.808594 188.742188 183.726562 193.804688 C 187.648438 198.871094 207.796875 219.828125 207.796875 219.828125 C 207.796875 219.828125 208.015625 218.984375 208.058594 218.464844 C 208.058594 218.464844 197.8125 207.878906 191.808594 200.828125 C 187.507812 195.78125 182.429688 187.914062 179.886719 183.847656 C 184.046875 189.511719 189.015625 195.757812 191.375 198.449219 C 194.71875 202.269531 207.476562 215.554688 208.535156 216.652344 C 208.410156 217.484375 208.15625 219.953125 208.097656 220.578125 L 203.382812 221.695312 C 202.238281 220.621094 188.902344 208.011719 181.238281 198.734375 C 176.085938 192.5 168.480469 182.644531 162.367188 174.726562 C 158.960938 170.320312 156.023438 166.511719 154.371094 164.453125 C 150.402344 159.507812 145.410156 154.109375 144.214844 152.835938 C 144.222656 152.832031 144.230469 152.828125 144.238281 152.828125 C 145.375 152.46875 147.480469 154.53125 149.582031 156.816406 C 150.582031 157.898438 153.121094 160.84375 155.808594 163.964844 C 159.660156 168.4375 163.644531 173.058594 164.394531 173.71875 C 165.746094 174.90625 168.816406 175.375 169.371094 175.304688 C 169.460938 175.292969 169.574219 175.253906 169.6875 175.148438 C 169.761719 175.078125 169.832031 174.980469 169.90625 174.84375 C 170.28125 174.105469 170.554688 171.882812 168.867188 168.773438 C 166.914062 165.175781 157.476562 153.730469 155.425781 151.4375 C 153.902344 149.738281 152.320312 147.804688 151.992188 145.824219 C 153.515625 147.515625 158.878906 153.5625 163.054688 158.949219 Z M 151.382812 144.421875 C 151.328125 144.789062 151.328125 145.15625 151.355469 145.515625 L 150.765625 145.730469 C 150.425781 145.335938 149.207031 144.1875 147.324219 145.203125 C 146.375 144.503906 145.027344 144.558594 144.136719 145.394531 C 143.136719 146.339844 143.09375 147.917969 144.03125 148.917969 C 144.976562 149.917969 146.554688 149.964844 147.554688 149.023438 C 148.554688 148.082031 148.597656 146.5 147.660156 145.503906 C 147.65625 145.5 147.648438 145.492188 147.644531 145.488281 C 149.46875 144.59375 150.488281 146.019531 150.53125 146.082031 L 150.617188 146.210938 L 151.398438 145.925781 C 151.753906 148.058594 153.398438 150.070312 154.976562 151.839844 C 157.019531 154.121094 166.410156 165.5 168.339844 169.058594 C 170.082031 172.269531 169.605469 174.484375 169.273438 174.722656 C 168.78125 174.761719 165.96875 174.316406 164.785156 173.277344 C 164.070312 172.644531 159.917969 167.828125 156.257812 163.578125 C 153.570312 160.457031 151.027344 157.511719 150.019531 156.417969 C 147.289062 153.457031 145.441406 151.828125 144.058594 152.265625 C 143.984375 152.289062 143.894531 152.328125 143.800781 152.378906 C 142.914062 150.246094 143.496094 148.796875 143.496094 148.796875 C 143.496094 148.796875 141.445312 147.566406 140.707031 147.046875 C 139.96875 146.53125 139.679688 145.84375 138.652344 145.175781 C 137.984375 144.734375 137.300781 143.925781 136.898438 143.414062 L 136.539062 142.0625 L 140.667969 142.074219 L 140.621094 141.734375 C 140.449219 140.433594 140.308594 138.902344 140.367188 138.460938 C 140.957031 138.390625 143.398438 138.46875 144.617188 138.507812 C 146.234375 138.5625 146.246094 138.5625 146.351562 138.464844 C 146.351562 138.464844 146.351562 138.464844 146.355469 138.460938 C 146.367188 138.449219 146.40625 138.414062 146.480469 138.355469 C 146.828125 138.058594 147.167969 137.765625 147.492188 137.480469 C 147.929688 137.964844 150.738281 138.042969 151.132812 139.0625 C 151.609375 140.296875 152.21875 140.476562 152.3125 142.746094 C 151.808594 143.1875 151.476562 143.761719 151.382812 144.421875 Z M 147.375 145.769531 C 148.164062 146.609375 148.128906 147.9375 147.285156 148.730469 C 146.445312 149.523438 145.117188 149.484375 144.324219 148.644531 C 143.535156 147.800781 143.570312 146.476562 144.414062 145.683594 C 145.253906 144.890625 146.582031 144.929688 147.375 145.769531 Z M 160.394531 140.738281 C 160.753906 142.433594 158.972656 143.21875 158.398438 143.421875 C 158.019531 143.039062 157.59375 142.722656 157.136719 142.480469 C 157.128906 141.628906 157.015625 138.144531 155.578125 135.957031 C 154.160156 133.800781 153.035156 132.824219 152.75 132.589844 C 153.832031 131.394531 154.242188 130.460938 154.394531 129.867188 C 157.125 133.019531 159.925781 138.542969 160.394531 140.738281 Z M 160.394531 140.738281 " fill-opacity="1" fill-rule="nonzero"/></g><path fill="#000000" d="M 155.023438 156.875 C 155.546875 156.378906 155.570312 155.558594 155.074219 155.03125 C 154.582031 154.507812 153.757812 154.484375 153.234375 154.980469 C 152.710938 155.472656 152.6875 156.296875 153.183594 156.820312 C 153.675781 157.339844 154.5 157.363281 155.023438 156.875 Z M 155.023438 156.875 " fill-opacity="1" fill-rule="nonzero"/><path fill="#000000" d="M 158.648438 160.71875 C 159.171875 160.226562 159.195312 159.402344 158.699219 158.878906 C 158.207031 158.355469 157.382812 158.332031 156.859375 158.828125 C 156.335938 159.320312 156.3125 160.144531 156.804688 160.667969 C 157.300781 161.1875 158.125 161.210938 158.648438 160.71875 Z M 158.648438 160.71875 " fill-opacity="1" fill-rule="nonzero"/><path fill="#000000" d="M 206.785156 223.992188 C 206.949219 224.207031 207.925781 225.320312 207.925781 225.320312 C 207.925781 225.320312 207.898438 224.726562 207.875 224.605469 C 207.851562 224.484375 206.609375 223.304688 206.609375 223.304688 L 205.90625 223.328125 C 205.90625 223.324219 206.617188 223.777344 206.785156 223.992188 Z M 206.785156 223.992188 " fill-opacity="1" fill-rule="nonzero"/><path fill="#000000" d="M 213.273438 222.664062 C 213.273438 222.664062 214.226562 223.351562 214.289062 223.421875 C 214.351562 223.484375 215.277344 224.410156 215.277344 224.410156 C 215.289062 224.367188 215.496094 224.132812 215.265625 223.886719 C 215.035156 223.640625 213.996094 222.59375 213.996094 222.59375 Z M 213.273438 222.664062 " fill-opacity="1" fill-rule="nonzero"/><path fill="#000000" d="M 212.503906 222.714844 L 214.683594 224.988281 L 215.554688 225.914062 L 215.5625 225.617188 L 212.820312 222.726562 Z M 212.503906 222.714844 " fill-opacity="1" fill-rule="nonzero"/><path fill="#000000" d="M 211.683594 222.882812 L 210.308594 223.109375 C 210.308594 223.109375 210.195312 223.519531 210.339844 223.652344 C 210.484375 223.785156 212.007812 224.644531 212.140625 224.808594 C 212.273438 224.964844 214.527344 227.699219 214.527344 227.699219 C 214.589844 227.730469 215.167969 227.71875 215.265625 227.539062 C 215.363281 227.359375 215.476562 226.554688 215.363281 226.433594 C 215.246094 226.3125 213.296875 224.355469 212.996094 224.074219 C 212.695312 223.785156 211.683594 222.882812 211.683594 222.882812 Z M 211.683594 222.882812 " fill-opacity="1" fill-rule="nonzero"/><path fill="#000000" d="M 211.195312 227.917969 C 211.261719 228.234375 211.875 228.808594 211.875 228.808594 C 211.875 228.808594 211.441406 228.023438 211.417969 227.871094 C 211.398438 227.714844 210.988281 226.941406 210.828125 226.773438 C 210.667969 226.601562 211.132812 227.605469 211.195312 227.917969 Z M 211.195312 227.917969 " fill-opacity="1" fill-rule="nonzero"/><path fill="#000000" d="M 211.761719 227.691406 C 211.886719 228.125 212.457031 228.746094 212.457031 228.746094 C 212.457031 228.746094 212.171875 227.746094 211.960938 227.46875 C 211.75 227.183594 210.859375 226.277344 210.859375 226.277344 C 210.859375 226.277344 211.636719 227.253906 211.761719 227.691406 Z M 211.761719 227.691406 " fill-opacity="1" fill-rule="nonzero"/><path fill="#000000" d="M 213.113281 227.003906 C 213.113281 227.003906 212.6875 226.25 212.492188 226.042969 C 212.292969 225.832031 211.097656 224.769531 211.097656 224.769531 Z M 213.113281 227.003906 " fill-opacity="1" fill-rule="nonzero"/><path fill="#000000" d="M 217.855469 229.277344 L 217.105469 229.8125 C 217.105469 229.8125 218.769531 231.464844 218.988281 231.710938 C 219.207031 231.957031 220.214844 233.265625 220.214844 233.265625 L 220.472656 232.234375 C 220.472656 232.234375 218.726562 230.097656 218.53125 229.9375 C 218.335938 229.769531 217.855469 229.277344 217.855469 229.277344 Z M 217.855469 229.277344 " fill-opacity="1" fill-rule="nonzero"/><path fill="#000000" d="M 220.074219 228.171875 L 221.238281 229.308594 C 221.238281 229.308594 221.164062 228.992188 221.191406 228.976562 C 221.21875 228.964844 220.367188 228.136719 220.367188 228.136719 Z M 220.074219 228.171875 " fill-opacity="1" fill-rule="nonzero"/><path fill="#000000" d="M 218.71875 228.8125 L 220.816406 230.917969 L 220.890625 230.59375 L 218.894531 228.777344 Z M 218.71875 228.8125 " fill-opacity="1" fill-rule="nonzero"/><path fill="#000000" d="M 217.246094 233.148438 C 217.328125 233.417969 217.773438 234.289062 217.773438 234.289062 C 217.773438 234.289062 217.808594 234.015625 217.769531 233.921875 C 217.734375 233.820312 217.246094 232.558594 217.160156 232.480469 C 217.074219 232.398438 216.535156 231.984375 216.535156 231.984375 C 216.535156 231.984375 217.167969 232.878906 217.246094 233.148438 Z M 217.246094 233.148438 " fill-opacity="1" fill-rule="nonzero"/><path fill="#000000" d="M 218.730469 232.992188 C 218.707031 233.054688 218.726562 234.011719 218.726562 234.011719 C 218.726562 234.011719 219.074219 233.304688 219.078125 233.222656 C 219.082031 233.140625 218.75 232.933594 218.730469 232.992188 Z M 218.730469 232.992188 " fill-opacity="1" fill-rule="nonzero"/><path fill="#000000" d="M 218.621094 226.445312 L 218.015625 225.804688 L 217.992188 226.105469 Z M 218.621094 226.445312 " fill-opacity="1" fill-rule="nonzero"/><path fill="#000000" d="M 236.292969 245.53125 C 235.785156 245.503906 241.605469 251.207031 244.160156 256.5625 C 246.714844 261.917969 247.273438 264.167969 247.378906 264.351562 C 247.484375 264.539062 248.90625 264.765625 249.277344 264.558594 C 249.652344 264.351562 250.035156 263.699219 249.40625 262.726562 C 248.777344 261.753906 246.390625 258.09375 246.058594 256.984375 C 245.722656 255.875 243.957031 253.265625 243.113281 252.085938 C 242.265625 250.902344 237.769531 245.480469 237.769531 245.480469 C 237.769531 245.480469 236.800781 245.5625 236.292969 245.53125 Z M 236.292969 245.53125 " fill-opacity="1" fill-rule="nonzero"/><path fill="#000000" d="M 235.355469 242.289062 C 235.328125 242.316406 236.238281 243.09375 236.238281 243.09375 C 236.238281 243.09375 235.488281 242.050781 235.308594 241.976562 C 235.128906 241.898438 235.378906 242.261719 235.355469 242.289062 Z M 235.355469 242.289062 " fill-opacity="1" fill-rule="nonzero"/><path fill="#000000" d="M 228.171875 240.90625 C 228.171875 240.90625 228.019531 241.460938 228.125 241.683594 C 228.226562 241.90625 230.855469 244.785156 230.855469 244.785156 L 231.644531 244.46875 C 231.644531 244.46875 229.796875 243.003906 229.65625 242.851562 C 229.511719 242.703125 228.171875 240.90625 228.171875 240.90625 Z M 228.171875 240.90625 " fill-opacity="1" fill-rule="nonzero"/><path fill="#000000" d="M 230.855469 242.933594 C 230.976562 243.195312 231.847656 244.082031 231.847656 244.082031 L 231.945312 243.882812 L 228.84375 240.515625 L 228.523438 240.554688 C 228.523438 240.554688 230.734375 242.675781 230.855469 242.933594 Z M 230.855469 242.933594 " fill-opacity="1" fill-rule="nonzero"/><path fill="#000000" d="M 232.011719 239.574219 C 232.011719 239.574219 232.773438 240.296875 232.890625 240.417969 C 233.007812 240.539062 233.164062 240.8125 233.164062 240.8125 C 233.164062 240.8125 233.304688 240.640625 233.265625 240.527344 C 233.222656 240.417969 232.359375 239.574219 232.359375 239.574219 Z M 232.011719 239.574219 " fill-opacity="1" fill-rule="nonzero"/><path fill="#000000" d="M 227.355469 243.972656 C 227.375 244.019531 228.683594 245.761719 228.683594 245.761719 L 229.015625 245.582031 C 229.015625 245.582031 228.4375 245.019531 228.265625 244.757812 C 228.097656 244.488281 227.375 243.699219 227.375 243.699219 C 227.375 243.699219 227.335938 243.921875 227.355469 243.972656 Z M 227.355469 243.972656 " fill-opacity="1" fill-rule="nonzero"/><path fill="#000000" d="M 230.496094 237.910156 L 229.699219 236.980469 C 229.699219 236.980469 230.730469 237.929688 230.761719 237.902344 C 230.789062 237.875 230.871094 237.867188 230.871094 237.867188 C 230.871094 237.867188 229.496094 236.652344 229.484375 236.554688 C 229.472656 236.453125 229.242188 236.058594 229.242188 236.058594 C 229.242188 236.058594 229.0625 236.632812 229.101562 236.671875 C 229.140625 236.714844 230.375 237.980469 230.375 237.980469 Z M 230.496094 237.910156 " fill-opacity="1" fill-rule="nonzero"/><path fill="#000000" d="M 229.199219 237.890625 C 229.179688 237.84375 228.90625 237.621094 228.90625 237.621094 L 228.828125 238.082031 C 228.828125 238.082031 229.125 238.054688 229.234375 238.125 C 229.34375 238.199219 229.554688 238.210938 229.554688 238.210938 C 229.554688 238.210938 229.21875 237.941406 229.199219 237.890625 Z M 229.199219 237.890625 " fill-opacity="1" fill-rule="nonzero"/><path fill="#000000" d="M 229.890625 238.148438 L 230.019531 238.144531 L 229.023438 237.027344 L 228.992188 237.246094 Z M 229.890625 238.148438 " fill-opacity="1" fill-rule="nonzero"/><path fill="#000000" d="M 225.546875 242.75 L 225.621094 242.523438 L 225.140625 242.171875 L 224.722656 241.6875 L 224.5 241.777344 L 225.085938 242.300781 Z M 225.546875 242.75 " fill-opacity="1" fill-rule="nonzero"/><path fill="#000000" d="M 225.027344 241.597656 L 225.671875 242.367188 L 225.667969 242.195312 Z M 225.027344 241.597656 " fill-opacity="1" fill-rule="nonzero"/><path fill="#000000" d="M 222.335938 235.671875 C 222.335938 235.671875 222.929688 236.484375 223.113281 236.710938 C 223.300781 236.9375 223.992188 237.644531 224.15625 237.746094 C 224.316406 237.847656 224.96875 239.046875 224.96875 239.046875 L 225.558594 238.933594 L 224.542969 237.882812 L 222.667969 235.652344 Z M 222.335938 235.671875 " fill-opacity="1" fill-rule="nonzero"/><path fill="#000000" d="M 223.152344 235.390625 L 226.105469 238.738281 L 226.398438 238.648438 L 225.476562 237.8125 Z M 223.152344 235.390625 " fill-opacity="1" fill-rule="nonzero"/><path fill="#000000" d="M 222.078125 236.589844 C 222.078125 236.589844 221.59375 238.632812 221.65625 238.75 C 221.714844 238.871094 222.453125 239.601562 222.453125 239.601562 L 223.5625 239.265625 C 223.5625 239.265625 223.011719 238.640625 222.910156 238.667969 C 222.808594 238.691406 222.421875 238.863281 222.320312 238.890625 C 222.21875 238.914062 221.953125 238.617188 221.933594 238.539062 C 221.917969 238.464844 222.078125 236.589844 222.078125 236.589844 Z M 222.078125 236.589844 " fill-opacity="1" fill-rule="nonzero"/><path fill="#000000" d="M 226.472656 234.226562 L 227.363281 235.488281 L 227.472656 235.101562 Z M 226.472656 234.226562 " fill-opacity="1" fill-rule="nonzero"/><path fill="#000000" d="M 226.875 234.085938 L 226.769531 234.136719 L 227.5625 234.882812 Z M 226.875 234.085938 " fill-opacity="1" fill-rule="nonzero"/><path fill="#000000" d="M 225.84375 236.742188 L 226.640625 237.246094 L 224.945312 235.535156 Z M 225.84375 236.742188 " fill-opacity="1" fill-rule="nonzero"/><path fill="#000000" d="M 226.566406 236.460938 L 225.511719 234.972656 L 225.019531 234.820312 Z M 226.566406 236.460938 " fill-opacity="1" fill-rule="nonzero"/><path fill="#000000" d="M 225.046875 232.140625 C 224.941406 232.027344 223.785156 231.058594 223.585938 230.804688 C 223.386719 230.550781 223.34375 230.578125 223.34375 230.578125 L 223.972656 231.511719 Z M 225.046875 232.140625 " fill-opacity="1" fill-rule="nonzero"/><path fill="#000000" d="M 223.78125 232.527344 L 223.082031 231.53125 L 223.015625 231.875 Z M 223.78125 232.527344 " fill-opacity="1" fill-rule="nonzero"/><path fill="#000000" d="M 208.238281 217.207031 C 208.238281 217.207031 195.300781 203.574219 192.851562 200.695312 C 192.851562 200.695312 203.925781 213.726562 208.195312 217.730469 Z M 208.238281 217.207031 " fill-opacity="1" fill-rule="nonzero"/><path fill="#000000" d="M 233.664062 250.113281 C 233.722656 249.949219 232.96875 248.164062 232.96875 248.164062 C 232.96875 248.164062 233.238281 249.019531 233.113281 249.5625 C 232.988281 250.109375 233.503906 251.332031 233.894531 251.710938 C 234.285156 252.09375 233.605469 250.273438 233.664062 250.113281 Z M 233.664062 250.113281 " fill-opacity="1" fill-rule="nonzero"/><path fill="#000000" d="M 239.875 262.597656 C 239.875 262.597656 240.464844 262.578125 240.980469 262.976562 C 240.980469 262.976562 238.214844 256.074219 234.125 250.566406 C 234.128906 250.5625 238.863281 257.746094 239.875 262.597656 Z M 239.875 262.597656 " fill-opacity="1" fill-rule="nonzero"/><path fill="#000000" d="M 235.628906 249.359375 C 235.628906 249.359375 235.957031 249.699219 236.457031 250.257812 C 236.183594 249.933594 235.910156 249.632812 235.628906 249.359375 Z M 235.628906 249.359375 " fill-opacity="1" fill-rule="nonzero"/><path fill="#000000" d="M 233.824219 246.285156 C 238.078125 250.882812 240.445312 255.753906 240.445312 255.753906 C 239.328125 253.621094 237.511719 251.441406 236.457031 250.257812 C 240.027344 254.496094 243.429688 263.15625 243.429688 263.15625 C 243.960938 263.269531 244.136719 263.484375 244.136719 263.484375 C 240.835938 252.359375 233.824219 246.285156 233.824219 246.285156 Z M 233.824219 246.285156 " fill-opacity="1" fill-rule="nonzero"/><path fill="#000000" d="M 180.710938 192.914062 C 185.640625 201.089844 206.382812 220.453125 206.382812 220.453125 L 206.9375 220.285156 C 196.042969 210.652344 180.710938 192.914062 180.710938 192.914062 Z M 180.710938 192.914062 " fill-opacity="1" fill-rule="nonzero"/><path fill="#000000" d="M 171.144531 179.179688 C 172.066406 182.800781 176.625 189.75 176.625 189.75 C 176.625 189.75 171.695312 180.367188 171.542969 178.164062 C 171.386719 175.960938 170.613281 173.554688 170.613281 173.554688 C 170.96875 176.425781 170.226562 175.558594 171.144531 179.179688 Z M 171.144531 179.179688 " fill-opacity="1" fill-rule="nonzero"/><path fill="#000000" d="M 177.574219 188.398438 C 177.574219 188.398438 175.140625 184.171875 174.339844 182.363281 C 173.539062 180.550781 172.367188 177.492188 172.367188 177.492188 C 172.367188 177.492188 172.867188 179.265625 173.675781 181.65625 C 174.484375 184.042969 177.574219 188.398438 177.574219 188.398438 Z M 177.574219 188.398438 " fill-opacity="1" fill-rule="nonzero"/><path fill="#000000" d="M 168.765625 171.003906 C 168.175781 169.640625 160.378906 159.839844 160.378906 159.839844 C 160.378906 159.839844 168.335938 170.554688 169.09375 172.882812 C 169.09375 172.886719 169.359375 172.371094 168.765625 171.003906 Z M 168.765625 171.003906 " fill-opacity="1" fill-rule="nonzero"/><path fill="#000000" d="M 166.539062 173.746094 C 166.539062 173.746094 157.105469 162.773438 155.453125 161.019531 C 153.800781 159.265625 152.125 157.320312 152.125 157.320312 C 152.125 157.320312 162.773438 170.199219 163.410156 170.929688 C 164.042969 171.664062 165.160156 172.964844 166.539062 173.746094 Z M 166.539062 173.746094 " fill-opacity="1" fill-rule="nonzero"/><g clip-path="url(#375438cd4c)"><g clip-path="url(#ff95f0a652)"><g clip-path="url(#ab0f784977)"><g clip-path="url(#79ca648d5c)"><path fill="#100f0d" d="M 239.367188 146.839844 C 240.652344 145.523438 241.988281 144.199219 243.390625 142.851562 C 244.699219 141.601562 245.988281 140.402344 247.265625 139.261719 C 249.390625 134.484375 247.464844 129.054688 243.371094 126.925781 C 240.03125 125.191406 235.675781 125.886719 232.699219 128.738281 C 230.898438 131.316406 228.984375 133.960938 226.941406 136.65625 C 228.628906 139.011719 230.308594 141.367188 231.988281 143.722656 C 234.453125 144.761719 236.914062 145.796875 239.367188 146.839844 " fill-opacity="1" fill-rule="nonzero"/></g></g></g></g><g clip-path="url(#d5ea6b9050)"><g clip-path="url(#fcb3a68c80)"><g clip-path="url(#0e3a4738d4)"><g clip-path="url(#c844b86156)"><path fill="#100f0d" d="M 239.25 146.269531 C 240.5 144.996094 241.773438 143.738281 243.054688 142.507812 C 244.304688 141.3125 245.585938 140.117188 246.867188 138.96875 C 248.757812 134.597656 247.105469 129.40625 243.152344 127.351562 C 239.992188 125.703125 235.847656 126.414062 233.066406 129.054688 C 231.269531 131.617188 229.414062 134.175781 227.535156 136.671875 L 232.300781 143.335938 Z M 247.636719 139.558594 C 247.621094 139.578125 247.601562 139.589844 247.585938 139.613281 C 246.285156 140.773438 244.988281 141.980469 243.71875 143.199219 C 242.367188 144.492188 241.019531 145.832031 239.714844 147.171875 C 239.574219 147.3125 239.367188 147.347656 239.183594 147.277344 L 231.808594 144.164062 C 231.726562 144.125 231.660156 144.070312 231.605469 144 L 226.546875 136.9375 C 226.433594 136.769531 226.433594 136.535156 226.558594 136.367188 C 228.511719 133.785156 230.445312 131.128906 232.300781 128.464844 C 232.320312 128.445312 232.339844 128.421875 232.367188 128.398438 C 235.441406 125.445312 240.058594 124.671875 243.589844 126.507812 C 248.007812 128.804688 249.855469 134.609375 247.695312 139.449219 C 247.683594 139.488281 247.664062 139.527344 247.636719 139.558594 " fill-opacity="1" fill-rule="nonzero"/></g></g></g></g><g clip-path="url(#891cdcfda0)"><g clip-path="url(#96b5c68779)"><g clip-path="url(#03a8a018c5)"><g clip-path="url(#0d7135572e)"><path fill="#100f0d" d="M 125.902344 266.992188 C 132.972656 265.042969 139.726562 262.238281 145.980469 258.648438 C 155.695312 253.070312 161.433594 247.140625 173.484375 234.25 C 184.03125 222.960938 193.472656 211.085938 201.519531 198.949219 C 204.800781 194 207.949219 188.890625 210.875 183.757812 L 196.402344 172.09375 C 185.195312 187.019531 173.71875 201.285156 162.292969 214.496094 C 161.578125 215.3125 160.878906 216.121094 160.164062 216.9375 C 154.695312 223.230469 149.035156 229.746094 142.472656 239.140625 C 136.28125 248 130.707031 257.367188 125.902344 266.992188 Z M 187.96875 219.035156 C 183.625 224.425781 179.019531 229.726562 174.179688 234.902344 C 162.910156 246.960938 156.703125 253.597656 146.460938 259.472656 C 139.828125 263.277344 132.648438 266.21875 125.121094 268.191406 C 124.941406 268.242188 124.75 268.179688 124.636719 268.03125 C 124.511719 267.886719 124.484375 267.6875 124.574219 267.519531 C 129.503906 257.519531 135.261719 247.785156 141.683594 238.589844 C 148.28125 229.15625 153.953125 222.625 159.449219 216.304688 C 160.152344 215.5 160.855469 214.683594 161.570312 213.867188 C 173.089844 200.554688 184.644531 186.179688 195.9375 171.125 C 196.011719 171.03125 196.128906 170.957031 196.253906 170.9375 C 196.386719 170.921875 196.515625 170.960938 196.617188 171.042969 L 211.792969 183.269531 C 211.976562 183.421875 212.019531 183.679688 211.910156 183.886719 C 208.910156 189.15625 205.6875 194.402344 202.316406 199.472656 C 197.925781 206.089844 193.132812 212.628906 187.96875 219.035156 " fill-opacity="1" fill-rule="nonzero"/></g></g></g></g><g clip-path="url(#ddd9fc7164)"><g clip-path="url(#7a4890d1a1)"><g clip-path="url(#bffb4f7a04)"><g clip-path="url(#6a9d8af419)"><path fill="#100f0d" d="M 207.101562 189.089844 L 203.871094 186.632812 L 200.644531 184.164062 L 200.949219 184.125 C 198.40625 187.789062 195.847656 191.4375 193.246094 195.070312 C 190.640625 198.6875 188.023438 202.304688 185.34375 205.871094 C 180.015625 213.035156 174.550781 220.09375 168.972656 227.0625 C 167.578125 228.804688 166.148438 230.523438 164.742188 232.257812 L 160.46875 237.398438 C 159.0625 239.109375 157.679688 240.871094 156.226562 242.585938 C 154.78125 244.296875 153.285156 245.980469 151.738281 247.609375 C 145.570312 254.167969 138.332031 259.753906 130.417969 264.042969 L 127.476562 265.636719 L 129.375 262.902344 C 131.46875 259.863281 133.539062 256.808594 135.582031 253.730469 C 137.621094 250.65625 139.652344 247.570312 141.644531 244.460938 C 143.636719 241.351562 145.644531 238.253906 147.554688 235.085938 L 150.445312 230.363281 L 153.378906 225.652344 L 150.722656 230.519531 L 148.023438 235.371094 C 146.25 238.609375 144.40625 241.820312 142.507812 245 C 140.601562 248.167969 138.683594 251.335938 136.710938 254.464844 C 134.730469 257.59375 132.726562 260.703125 130.691406 263.796875 L 129.640625 262.652344 C 137.363281 258.3125 144.324219 252.765625 150.371094 246.324219 C 151.886719 244.710938 153.351562 243.054688 154.769531 241.355469 L 159.007812 236.195312 L 163.304688 231.070312 C 164.722656 229.347656 166.15625 227.640625 167.550781 225.90625 C 173.210938 219.03125 178.753906 212.050781 184.246094 205.035156 C 186.996094 201.523438 189.742188 198.019531 192.457031 194.480469 C 195.1875 190.953125 197.917969 187.425781 200.609375 183.875 L 200.742188 183.699219 L 200.914062 183.832031 L 204.015625 186.453125 L 207.101562 189.089844 " fill-opacity="1" fill-rule="nonzero"/></g></g></g></g><g clip-path="url(#9ede059059)"><g clip-path="url(#7296a3e92f)"><g clip-path="url(#201e8503ee)"><g clip-path="url(#ba7b30196e)"><path fill="#100f0d" d="M 220.3125 169.644531 C 220.691406 169.417969 221.027344 169.140625 221.304688 168.816406 C 221.917969 168.105469 222.125 167.316406 222.1875 166.820312 L 213.28125 153.550781 C 212.925781 153.703125 212.496094 153.949219 212.105469 154.351562 C 211.640625 154.835938 211.390625 155.363281 211.273438 155.765625 Z M 222.117188 169.332031 C 222.089844 169.367188 222.0625 169.402344 222.035156 169.433594 C 221.578125 169.96875 220.996094 170.40625 220.347656 170.699219 C 220.136719 170.789062 219.878906 170.714844 219.746094 170.523438 L 210.347656 156.105469 C 210.277344 155.996094 210.25 155.855469 210.289062 155.726562 C 210.421875 155.195312 210.726562 154.410156 211.421875 153.6875 C 212.082031 153.003906 212.820312 152.679688 213.320312 152.519531 C 213.519531 152.457031 213.738281 152.53125 213.855469 152.707031 L 223.085938 166.4375 C 223.140625 166.527344 223.171875 166.636719 223.160156 166.746094 C 223.109375 167.308594 222.898438 168.367188 222.117188 169.332031 " fill-opacity="1" fill-rule="nonzero"/></g></g></g></g><g clip-path="url(#7ddf3a18ea)"><g clip-path="url(#c61a07d890)"><g clip-path="url(#75154dfe32)"><g clip-path="url(#fec4738716)"><path fill="#100f0d" d="M 208.546875 158.734375 L 213.394531 160.859375 L 210.59375 156.484375 C 210.164062 156.667969 209.59375 157.003906 209.128906 157.605469 C 208.871094 157.9375 208.671875 158.324219 208.546875 158.734375 Z M 215.015625 162.21875 C 215.011719 162.226562 215.011719 162.226562 215.007812 162.230469 C 214.875 162.394531 214.648438 162.445312 214.457031 162.359375 L 207.792969 159.449219 C 207.585938 159.359375 207.46875 159.136719 207.511719 158.917969 C 207.652344 158.226562 207.945312 157.570312 208.371094 157.023438 C 208.394531 156.992188 208.410156 156.972656 208.429688 156.949219 C 209.183594 156.015625 210.132812 155.609375 210.632812 155.449219 C 210.847656 155.378906 211.070312 155.464844 211.191406 155.648438 L 215.042969 161.664062 C 215.160156 161.832031 215.144531 162.0625 215.015625 162.21875 " fill-opacity="1" fill-rule="nonzero"/></g></g></g></g><g clip-path="url(#1991580903)"><g clip-path="url(#22cd05d71b)"><g clip-path="url(#fe28ff13d5)"><g clip-path="url(#2053f018af)"><path fill="#100f0d" d="M 236.339844 149.664062 C 236.867188 149.457031 237.519531 149.089844 238.058594 148.429688 C 238.375 148.050781 238.632812 147.59375 238.796875 147.113281 L 233.015625 144.671875 Z M 238.84375 148.996094 C 238.828125 149.011719 238.816406 149.027344 238.800781 149.046875 C 237.976562 150.035156 236.980469 150.484375 236.28125 150.691406 C 236.078125 150.75 235.863281 150.671875 235.753906 150.496094 L 231.339844 143.878906 C 231.222656 143.710938 231.234375 143.476562 231.367188 143.316406 C 231.367188 143.316406 231.367188 143.316406 231.371094 143.308594 C 231.503906 143.144531 231.730469 143.097656 231.921875 143.179688 L 239.558594 146.398438 C 239.769531 146.484375 239.886719 146.71875 239.832031 146.945312 C 239.65625 147.695312 239.316406 148.40625 238.84375 148.996094 " fill-opacity="1" fill-rule="nonzero"/></g></g></g></g><g clip-path="url(#ef66b2e206)"><g clip-path="url(#fe8a88a16b)"><g clip-path="url(#5c7ee0f7a2)"><g clip-path="url(#6c4c18b64f)"><path fill="#100f0d" d="M 222.828125 166.0625 C 223.175781 165.839844 223.566406 165.507812 223.917969 165.03125 C 224.253906 164.582031 224.492188 164.0625 224.628906 163.523438 L 216.023438 150.472656 C 215.652344 150.609375 215.164062 150.855469 214.730469 151.324219 C 214.238281 151.84375 214.023438 152.433594 213.929688 152.8125 Z M 224.558594 165.777344 C 224.109375 166.332031 223.539062 166.796875 222.90625 167.128906 C 222.6875 167.242188 222.421875 167.175781 222.292969 166.96875 L 213.027344 153.171875 C 212.960938 153.070312 212.929688 152.945312 212.953125 152.824219 C 213.054688 152.257812 213.320312 151.421875 214.03125 150.667969 C 214.585938 150.074219 215.320312 149.644531 216.101562 149.449219 C 216.308594 149.402344 216.511719 149.484375 216.621094 149.644531 L 225.539062 163.171875 C 225.605469 163.273438 225.632812 163.402344 225.609375 163.523438 C 225.460938 164.277344 225.140625 164.984375 224.691406 165.597656 C 224.648438 165.652344 224.605469 165.714844 224.558594 165.777344 " fill-opacity="1" fill-rule="nonzero"/></g></g></g></g><g clip-path="url(#5f1cbc63cc)"><g clip-path="url(#59f1616c34)"><g clip-path="url(#ab5c5d6247)"><g clip-path="url(#e61b0ee781)"><path fill="#100f0d" d="M 225.292969 162.796875 C 225.730469 162.515625 226.140625 162.171875 226.445312 161.765625 C 226.9375 161.160156 227.179688 160.519531 227.304688 160.054688 L 218.777344 147.179688 C 218.40625 147.269531 217.859375 147.496094 217.414062 148.019531 C 216.867188 148.636719 216.777344 149.324219 216.765625 149.699219 Z M 227.179688 162.382812 C 226.6875 162.992188 226.058594 163.496094 225.355469 163.859375 C 225.140625 163.964844 224.871094 163.894531 224.742188 163.6875 L 215.890625 150.09375 C 215.84375 150.023438 215.816406 149.933594 215.808594 149.84375 C 215.804688 149.425781 215.882812 148.335938 216.6875 147.394531 C 217.492188 146.464844 218.527344 146.234375 218.929688 146.167969 C 219.113281 146.148438 219.292969 146.226562 219.402344 146.382812 L 228.214844 159.703125 C 228.289062 159.804688 228.3125 159.9375 228.285156 160.0625 C 228.101562 160.902344 227.730469 161.699219 227.191406 162.367188 C 227.1875 162.375 227.183594 162.378906 227.179688 162.382812 " fill-opacity="1" fill-rule="nonzero"/></g></g></g></g><g clip-path="url(#62d1bf7f91)"><g clip-path="url(#22a7c41037)"><g clip-path="url(#540966a5e8)"><g clip-path="url(#6dd8d27af4)"><path fill="#100f0d" d="M 227.992188 159.355469 C 228.367188 159.15625 228.800781 158.847656 229.1875 158.378906 C 229.675781 157.804688 229.898438 157.195312 230.003906 156.742188 L 221.472656 143.789062 C 221.121094 143.902344 220.699219 144.113281 220.320312 144.476562 C 219.632812 145.15625 219.484375 145.992188 219.460938 146.4375 Z M 229.980469 158.933594 C 229.960938 158.953125 229.941406 158.976562 229.929688 158.996094 C 229.414062 159.609375 228.746094 160.101562 228.003906 160.402344 C 227.789062 160.492188 227.546875 160.414062 227.417969 160.226562 L 218.574219 146.828125 C 218.527344 146.753906 218.496094 146.664062 218.5 146.566406 C 218.503906 146.066406 218.625 144.808594 219.652344 143.796875 C 220.316406 143.144531 221.070312 142.878906 221.582031 142.773438 C 221.78125 142.738281 221.972656 142.820312 222.085938 142.984375 L 230.910156 156.390625 C 230.980469 156.488281 231.007812 156.617188 230.984375 156.734375 C 230.875 157.296875 230.621094 158.132812 229.980469 158.933594 " fill-opacity="1" fill-rule="nonzero"/></g></g></g></g><g clip-path="url(#4295479708)"><g clip-path="url(#0c162ae6d2)"><g clip-path="url(#7d5630024b)"><g clip-path="url(#2d3ac2e3d9)"><path fill="#100f0d" d="M 230.695312 156.058594 C 231.09375 155.875 231.5625 155.578125 231.980469 155.097656 C 232.480469 154.523438 232.707031 153.917969 232.8125 153.464844 L 224.207031 140.476562 C 223.835938 140.589844 223.335938 140.816406 222.910156 141.308594 C 222.339844 141.972656 222.261719 142.71875 222.265625 143.101562 Z M 232.820312 155.589844 C 232.78125 155.640625 232.746094 155.683594 232.703125 155.726562 C 232.015625 156.519531 231.214844 156.914062 230.675781 157.097656 C 230.464844 157.171875 230.230469 157.09375 230.109375 156.910156 L 221.390625 143.511719 C 221.34375 143.441406 221.316406 143.359375 221.308594 143.277344 C 221.285156 142.832031 221.320312 141.691406 222.1875 140.683594 C 222.925781 139.828125 223.851562 139.554688 224.335938 139.472656 C 224.523438 139.4375 224.714844 139.511719 224.816406 139.671875 L 233.726562 153.105469 C 233.792969 153.207031 233.816406 153.328125 233.796875 153.453125 C 233.695312 154.007812 233.441406 154.816406 232.820312 155.589844 " fill-opacity="1" fill-rule="nonzero"/></g></g></g></g><g clip-path="url(#0dfb04d02a)"><g clip-path="url(#30bc967be2)"><g clip-path="url(#3c8bc1933a)"><g clip-path="url(#f78ebdf3a0)"><path fill="#100f0d" d="M 233.515625 152.789062 C 233.90625 152.628906 234.375 152.355469 234.792969 151.894531 C 235.292969 151.351562 235.523438 150.769531 235.636719 150.328125 L 226.820312 137.070312 C 226.4375 137.191406 225.828125 137.449219 225.386719 138.078125 C 224.957031 138.679688 224.898438 139.320312 224.902344 139.65625 Z M 235.6875 152.320312 C 235.628906 152.394531 235.570312 152.464844 235.5 152.539062 C 234.804688 153.300781 234.007812 153.65625 233.464844 153.824219 C 233.265625 153.886719 233.039062 153.804688 232.921875 153.628906 L 224.03125 140.070312 C 223.984375 140.003906 223.953125 139.921875 223.957031 139.839844 C 223.925781 139.359375 223.964844 138.417969 224.609375 137.515625 C 225.375 136.4375 226.511719 136.136719 226.957031 136.058594 C 227.144531 136.035156 227.332031 136.113281 227.433594 136.265625 L 236.542969 149.964844 C 236.613281 150.078125 236.640625 150.203125 236.617188 150.324219 C 236.515625 150.84375 236.269531 151.601562 235.6875 152.320312 " fill-opacity="1" fill-rule="nonzero"/></g></g></g></g><g clip-path="url(#2475bc5a0d)"><g clip-path="url(#56616373ef)"><g clip-path="url(#4ea3217d3d)"><g clip-path="url(#0676ef31be)"><path fill="#100f0d" d="M 213.832031 178.269531 C 214.171875 178.617188 214.183594 179.15625 213.890625 179.523438 C 213.863281 179.554688 213.835938 179.589844 213.808594 179.613281 C 213.425781 179.984375 212.820312 179.96875 212.453125 179.582031 C 210.363281 177.40625 208.089844 175.367188 205.695312 173.53125 C 203.746094 172.046875 201.6875 170.652344 199.570312 169.414062 C 199.113281 169.148438 198.957031 168.554688 199.226562 168.105469 C 199.492188 167.652344 200.078125 167.5 200.53125 167.765625 C 202.722656 169.046875 204.84375 170.480469 206.847656 172.019531 C 209.324219 173.914062 211.671875 176.015625 213.832031 178.269531 Z M 207.824219 159.179688 C 205.785156 161.316406 203.671875 163.464844 201.472656 165.628906 C 200.527344 166.546875 199.59375 167.453125 198.660156 168.347656 L 191.15625 166.1875 C 192.273438 168.109375 193.386719 170.027344 194.5 171.945312 C 197.207031 173.617188 200.183594 175.683594 203.257812 178.234375 C 205.597656 180.183594 207.636719 182.121094 209.398438 183.953125 L 217.882812 187.722656 C 216.625 185.171875 215.371094 182.617188 214.121094 180.070312 C 214.421875 179.542969 214.714844 179.027344 215.023438 178.507812 C 216.730469 175.648438 218.46875 172.925781 220.210938 170.347656 C 218.355469 167.535156 216.5 164.734375 214.644531 161.917969 C 212.371094 161.007812 210.09375 160.089844 207.824219 159.179688 " fill-opacity="1" fill-rule="nonzero"/></g></g></g></g><g clip-path="url(#668ea8183b)"><g clip-path="url(#1a01df0d71)"><g clip-path="url(#16837c28c4)"><g clip-path="url(#4677ca68d1)"><path fill="#100f0d" d="M 199.671875 168.289062 C 199.660156 168.304688 199.644531 168.324219 199.636719 168.34375 C 199.566406 168.457031 199.554688 168.585938 199.585938 168.710938 C 199.617188 168.832031 199.699219 168.941406 199.808594 169 C 201.941406 170.257812 204.019531 171.652344 205.984375 173.152344 C 208.398438 175.003906 210.691406 177.058594 212.800781 179.257812 C 212.894531 179.351562 213.011719 179.398438 213.136719 179.40625 C 213.265625 179.410156 213.386719 179.359375 213.476562 179.273438 C 213.6875 179.070312 213.664062 178.785156 213.492188 178.597656 C 211.34375 176.367188 209.015625 174.277344 206.5625 172.402344 C 204.570312 170.871094 202.460938 169.449219 200.289062 168.183594 C 200.179688 168.113281 200.054688 168.09375 199.929688 168.125 C 199.828125 168.15625 199.738281 168.210938 199.671875 168.289062 Z M 214.179688 177.9375 C 214.324219 178.09375 214.433594 178.269531 214.5 178.464844 C 214.539062 178.394531 214.578125 178.324219 214.617188 178.261719 C 216.210938 175.589844 217.898438 172.929688 219.632812 170.347656 L 214.332031 162.308594 L 207.945312 159.742188 C 205.9375 161.84375 203.875 163.941406 201.804688 165.96875 C 201.371094 166.390625 200.945312 166.816406 200.503906 167.234375 C 200.601562 167.265625 200.6875 167.308594 200.769531 167.355469 C 202.976562 168.648438 205.121094 170.089844 207.144531 171.644531 C 209.628906 173.546875 211.996094 175.667969 214.179688 177.9375 Z M 209.679688 183.554688 L 216.875 186.753906 L 213.695312 180.273438 C 213.6875 180.269531 213.683594 180.265625 213.679688 180.253906 C 213.503906 180.324219 213.3125 180.367188 213.117188 180.355469 C 212.730469 180.351562 212.378906 180.199219 212.109375 179.917969 C 210.039062 177.753906 207.777344 175.742188 205.40625 173.914062 C 203.472656 172.4375 201.425781 171.058594 199.320312 169.824219 C 198.996094 169.628906 198.757812 169.324219 198.660156 168.949219 C 198.65625 168.90625 198.644531 168.863281 198.636719 168.828125 C 198.605469 168.820312 198.5625 168.8125 198.523438 168.804688 L 192.167969 166.976562 L 194.855469 171.601562 C 197.890625 173.480469 200.820312 175.589844 203.5625 177.867188 C 205.695312 179.640625 207.753906 181.558594 209.679688 183.554688 Z M 218.253906 188.023438 C 218.246094 188.035156 218.238281 188.046875 218.230469 188.050781 C 218.089844 188.195312 217.875 188.238281 217.6875 188.160156 L 209.207031 184.390625 C 209.152344 184.363281 209.101562 184.324219 209.058594 184.28125 C 207.136719 182.289062 205.082031 180.371094 202.953125 178.597656 C 200.214844 176.328125 197.285156 174.21875 194.257812 172.355469 C 194.1875 172.316406 194.132812 172.253906 194.09375 172.1875 L 190.746094 166.421875 C 190.644531 166.257812 190.65625 166.046875 190.78125 165.894531 C 190.890625 165.734375 191.101562 165.679688 191.285156 165.726562 L 198.523438 167.808594 C 199.398438 166.980469 200.261719 166.136719 201.136719 165.28125 C 203.273438 163.1875 205.40625 161.027344 207.472656 158.851562 C 207.609375 158.707031 207.820312 158.664062 207.996094 158.734375 L 214.824219 161.476562 C 214.914062 161.515625 214.992188 161.578125 215.046875 161.660156 L 220.609375 170.085938 C 220.710938 170.25 220.710938 170.457031 220.601562 170.617188 C 218.820312 173.265625 217.078125 176.003906 215.4375 178.757812 C 215.214844 179.125 215 179.496094 214.78125 179.871094 L 214.660156 180.089844 L 218.3125 187.511719 C 218.390625 187.679688 218.371094 187.878906 218.253906 188.023438 " fill-opacity="1" fill-rule="nonzero"/></g></g></g></g><g clip-path="url(#1540171de0)"><path fill="#000000" d="M 187.433594 325.433594 C 111.191406 325.433594 49.433594 263.246094 49.433594 187.433594 C 49.433594 111.617188 111.191406 49.433594 187.433594 49.433594 C 263.671875 49.433594 325.433594 111.191406 325.433594 187.433594 C 325.433594 263.671875 263.246094 325.433594 187.433594 325.433594 Z M 187.433594 57.949219 C 115.875 57.949219 57.949219 115.875 57.949219 187.433594 C 57.949219 258.988281 115.875 316.914062 187.433594 316.914062 C 258.988281 316.914062 316.914062 258.988281 316.914062 187.433594 C 316.914062 115.875 258.5625 57.949219 187.433594 57.949219 Z M 187.433594 57.949219 " fill-opacity="1" fill-rule="nonzero"/></g><g fill="#000000" fill-opacity="1"><g transform="translate(99.653535, 160.994133)"><g><path d="M 3.734375 -7.351562 L 6.230469 -12.261719 L -5.414062 -24.433594 L 11.285156 -22.207031 L 13.761719 -27.085938 L -4.539062 -45.28125 L -7.210938 -40.027344 L -1.613281 -34.542969 L 4.484375 -28.496094 L -4.09375 -29.664062 L -11.945312 -30.703125 L -14.347656 -25.980469 L -8.875 -20.25 L -2.953125 -14.09375 L -11.324219 -15.433594 L -19.050781 -16.722656 L -21.734375 -11.4375 Z M 3.734375 -7.351562 "/></g></g></g><g fill="#000000" fill-opacity="1"><g transform="translate(117.277689, 128.714366)"><g><path d="M 2.089844 -2.078125 L 13.808594 -13.730469 L 10.46875 -17.085938 L 2.679688 -9.34375 L -1.101562 -13.152344 L 5.738281 -19.953125 L 2.449219 -23.261719 L -4.394531 -16.460938 L -7.980469 -20.066406 L -0.464844 -27.539062 L -3.78125 -30.871094 L -15.226562 -19.492188 Z M 2.089844 -2.078125 "/></g></g></g><g fill="#000000" fill-opacity="1"><g transform="translate(131.548442, 114.26491)"><g><path d="M 10.089844 -5.558594 C 15.066406 -8.582031 16.683594 -12.808594 14.28125 -16.765625 C 12.257812 -20.09375 8.867188 -20.742188 2.902344 -18.800781 C -0.761719 -17.601562 -2.363281 -17.738281 -3.144531 -19.027344 C -3.984375 -20.40625 -3.265625 -21.992188 -1.257812 -23.210938 C 0.933594 -24.542969 2.945312 -24.203125 4.089844 -22.316406 L 8.679688 -25.105469 C 6.109375 -29.332031 1.292969 -30.097656 -3.683594 -27.074219 C -8.511719 -24.140625 -10.070312 -19.949219 -7.738281 -16.113281 C -5.660156 -12.695312 -2.113281 -12.058594 3.441406 -13.996094 C 6.792969 -15.171875 8.667969 -15.121094 9.5625 -13.652344 C 10.417969 -12.242188 9.652344 -10.667969 7.671875 -9.464844 C 5.363281 -8.0625 3.152344 -8.320312 1.933594 -10.328125 L -2.742188 -7.488281 C -0.101562 -3.140625 4.8125 -2.351562 10.089844 -5.558594 Z M 10.089844 -5.558594 "/></g></g></g><g fill="#000000" fill-opacity="1"><g transform="translate(149.776511, 102.976361)"><g><path d="M 8.449219 -2.609375 L 13.777344 -4.253906 L 8.074219 -22.726562 L 15.515625 -25.023438 L 13.972656 -30.019531 L -6.242188 -23.777344 L -4.699219 -18.78125 L 2.742188 -21.078125 Z M 8.449219 -2.609375 "/></g></g></g><g fill="#000000" fill-opacity="1"><g transform="translate(171.79098, 96.827226)"><g/></g></g><g fill="#000000" fill-opacity="1"><g transform="translate(179.333941, 94.812118)"><g><path d="M 14.132812 1.554688 C 20.570312 2.039062 25.867188 -1.503906 27.539062 -7.359375 L 21.800781 -7.789062 C 20.574219 -5.066406 17.851562 -3.476562 14.632812 -3.71875 C 10.472656 -4.03125 7.761719 -7.296875 8.09375 -11.707031 C 8.421875 -16.113281 11.625 -18.933594 15.789062 -18.621094 C 18.902344 -18.386719 21.332031 -16.515625 22.074219 -13.75 L 27.808594 -13.320312 C 26.851562 -19.300781 22.238281 -23.449219 16.011719 -23.917969 C 8.59375 -24.472656 2.988281 -19.617188 2.425781 -12.132812 C 1.863281 -4.644531 6.679688 0.996094 14.132812 1.554688 Z M 14.132812 1.554688 "/></g></g></g><g fill="#000000" fill-opacity="1"><g transform="translate(206.023225, 96.502036)"><g><path d="M 13.363281 5.886719 C 20.496094 8.742188 27.503906 5.882812 30.296875 -1.089844 C 33.085938 -8.058594 29.996094 -14.964844 22.867188 -17.824219 C 15.734375 -20.679688 8.761719 -17.804688 5.96875 -10.835938 C 3.175781 -3.867188 6.234375 3.027344 13.363281 5.886719 Z M 11.242188 -8.722656 C 12.886719 -12.824219 16.855469 -14.523438 20.894531 -12.90625 C 24.964844 -11.273438 26.632812 -7.320312 24.988281 -3.214844 C 23.34375 0.886719 19.40625 2.597656 15.335938 0.96875 C 11.296875 -0.652344 9.597656 -4.621094 11.242188 -8.722656 Z M 11.242188 -8.722656 "/></g></g></g><g fill="#000000" fill-opacity="1"><g transform="translate(231.736561, 106.857172)"><g><path d="M 0.246094 0.195312 L 4.910156 3.917969 L 8.84375 1.628906 L 16.46875 7.710938 L 15.109375 12.058594 L 19.769531 15.78125 L 27.46875 -9.5 L 23.191406 -12.914062 Z M 12.707031 -0.902344 L 20.996094 -5.777344 L 18.105469 3.410156 Z M 12.707031 -0.902344 "/></g></g></g><g fill="#000000" fill-opacity="1"><g transform="translate(250.794613, 122.124882)"><g><path d="M 6.464844 9.53125 C 9.9375 14.207031 14.296875 15.425781 18.015625 12.667969 C 21.140625 10.34375 21.472656 6.90625 18.988281 1.148438 C 17.457031 -2.386719 17.441406 -3.996094 18.652344 -4.894531 C 19.949219 -5.855469 21.59375 -5.285156 22.996094 -3.398438 C 24.523438 -1.34375 24.375 0.691406 22.597656 2.007812 L 25.800781 6.316406 C 29.769531 3.367188 30.089844 -1.5 26.617188 -6.175781 C 23.25 -10.710938 18.929688 -11.875 15.324219 -9.195312 C 12.113281 -6.8125 11.808594 -3.222656 14.253906 2.128906 C 15.734375 5.359375 15.859375 7.230469 14.480469 8.257812 C 13.15625 9.238281 11.515625 8.621094 10.136719 6.761719 C 8.523438 4.59375 8.578125 2.371094 10.464844 0.96875 L 7.203125 -3.425781 C 3.117188 -0.390625 2.785156 4.574219 6.464844 9.53125 Z M 6.464844 9.53125 "/></g></g></g><g fill="#000000" fill-opacity="1"><g transform="translate(263.718006, 139.234046)"><g><path d="M 3.378906 8.167969 L 5.511719 13.324219 L 23.375 5.933594 L 26.351562 13.132812 L 31.183594 11.132812 L 23.097656 -8.414062 L 18.265625 -6.417969 L 21.242188 0.78125 Z M 3.378906 8.167969 "/></g></g></g><g fill="#000000" fill-opacity="1"><g transform="translate(134.016996, 295.260916)"><g><path d="M 17.28125 3.5 L 14.046875 2.84375 L 15.90625 -6.53125 L 10.84375 0.703125 L 8.46875 0.21875 L 6.609375 -8.421875 L 4.71875 0.953125 L 1.4375 0.296875 L 4.359375 -14.125 L 8.375 -13.3125 L 10.5625 -3.953125 L 16.203125 -11.734375 L 20.203125 -10.921875 Z M 17.28125 3.5 "/></g></g></g><g fill="#000000" fill-opacity="1"><g transform="translate(170.523964, 300.927705)"><g><path d="M 5.1875 0.3125 L 1.46875 0.09375 L 2.34375 -14.578125 L 6.0625 -14.359375 Z M 5.1875 0.3125 "/></g></g></g><g fill="#000000" fill-opacity="1"><g transform="translate(194.928542, 301.4431)"><g><path d="M 4.984375 -3.453125 L 11.21875 -3.84375 L 11.421875 -0.71875 L 1.46875 -0.09375 L 0.53125 -14.765625 L 4.25 -15 Z M 4.984375 -3.453125 "/></g></g></g><g fill="#000000" fill-opacity="1"><g transform="translate(224.425343, 298.414122)"><g><path d="M 10.8125 -2.28125 L 5.8125 -7.125 L 4.34375 -4.609375 L 5.09375 -1.078125 L 1.4375 -0.296875 L -1.59375 -14.6875 L 2.0625 -15.46875 L 3.375 -9.25 L 7.578125 -16.625 L 11.796875 -17.515625 L 7.71875 -10.421875 L 15.1875 -3.203125 Z M 10.8125 -2.28125 "/></g></g></g><g clip-path="url(#41edc0f805)"><g clip-path="url(#500e90ab9f)"><path fill="#000000" d="M 270.992188 180.777344 L 337.273438 180.777344 L 337.273438 208.394531 L 270.992188 208.394531 Z M 270.992188 180.777344 " fill-opacity="1" fill-rule="nonzero"/></g></g><g clip-path="url(#f55f6d067b)"><g clip-path="url(#8324d594fe)"><path fill="#000000" d="M 104.003906 208.328125 L 37.722656 208.328125 L 37.722656 180.710938 L 104.003906 180.710938 Z M 104.003906 208.328125 " fill-opacity="1" fill-rule="nonzero"/></g></g><g fill="#ffffff" fill-opacity="1"><g transform="translate(285.179958, 197.223512)"><g><path d="M 2.875 -7.03125 C 3.539062 -7.03125 4.078125 -6.867188 4.484375 -6.546875 C 4.890625 -6.234375 5.09375 -5.8125 5.09375 -5.28125 C 5.09375 -4.664062 4.664062 -3.898438 3.8125 -2.984375 L 2 -1.0625 L 5.40625 -1.0625 L 5.40625 0 L 0.453125 0 L 0.453125 -0.859375 L 3.015625 -3.625 C 3.585938 -4.195312 3.875 -4.691406 3.875 -5.109375 C 3.875 -5.378906 3.769531 -5.59375 3.5625 -5.75 C 3.351562 -5.914062 3.066406 -6 2.703125 -6 C 2.066406 -6 1.429688 -5.707031 0.796875 -5.125 L 0.328125 -6.03125 C 1.148438 -6.695312 2 -7.03125 2.875 -7.03125 Z M 2.875 -7.03125 "/></g></g></g><g fill="#ffffff" fill-opacity="1"><g transform="translate(292.784949, 197.223512)"><g><path d="M 3.453125 -7.015625 C 4.398438 -7.015625 5.128906 -6.707031 5.640625 -6.09375 C 6.148438 -5.488281 6.40625 -4.617188 6.40625 -3.484375 C 6.40625 -2.359375 6.148438 -1.488281 5.640625 -0.875 C 5.128906 -0.269531 4.398438 0.03125 3.453125 0.03125 C 2.492188 0.03125 1.757812 -0.269531 1.25 -0.875 C 0.738281 -1.488281 0.484375 -2.359375 0.484375 -3.484375 C 0.484375 -4.617188 0.738281 -5.488281 1.25 -6.09375 C 1.757812 -6.707031 2.492188 -7.015625 3.453125 -7.015625 Z M 3.453125 -6.078125 C 2.273438 -6.078125 1.6875 -5.210938 1.6875 -3.484375 C 1.6875 -1.753906 2.273438 -0.890625 3.453125 -0.890625 C 4.617188 -0.890625 5.203125 -1.753906 5.203125 -3.484375 C 5.203125 -5.210938 4.617188 -6.078125 3.453125 -6.078125 Z M 3.453125 -6.078125 "/></g></g></g><g fill="#ffffff" fill-opacity="1"><g transform="translate(301.416565, 197.223512)"><g><path d="M 2.671875 0 L 1.5 0 L 1.5 -5.9375 L 0.125 -5.9375 L 0.125 -6.984375 L 2.671875 -6.984375 Z M 2.671875 0 "/></g></g></g><g fill="#ffffff" fill-opacity="1"><g transform="translate(307.018139, 197.223512)"><g><path d="M 5.4375 -6.078125 L 2.65625 0 L 1.421875 0 L 4.125 -5.921875 L 1.421875 -5.921875 L 1.40625 -4.9375 L 0.375 -4.9375 L 0.375 -6.984375 L 5.4375 -6.984375 Z M 5.4375 -6.078125 "/></g></g></g><g fill="#ffffff" fill-opacity="1"><g transform="translate(61.296708, 197.245616)"><g><path d="M 5.90625 -5.921875 L 2.09375 -5.921875 L 2.09375 -4.03125 L 5.5 -4.03125 L 5.5 -2.984375 L 2.09375 -2.984375 L 2.09375 -1.0625 L 6.015625 -1.0625 L 6.015625 0 L 0.921875 0 L 0.921875 -6.984375 L 5.90625 -6.984375 Z M 5.90625 -5.921875 "/></g></g></g><g fill="#ffffff" fill-opacity="1"><g transform="translate(69.579474, 197.245616)"><g><path d="M 3.203125 -7.03125 C 4.109375 -7.03125 4.925781 -6.789062 5.65625 -6.3125 L 5.15625 -5.28125 C 4.445312 -5.707031 3.769531 -5.921875 3.125 -5.921875 C 2.769531 -5.921875 2.488281 -5.859375 2.28125 -5.734375 C 2.082031 -5.609375 1.984375 -5.425781 1.984375 -5.1875 C 1.984375 -4.957031 2.078125 -4.757812 2.265625 -4.59375 C 2.453125 -4.4375 2.679688 -4.316406 2.953125 -4.234375 C 3.234375 -4.160156 3.535156 -4.066406 3.859375 -3.953125 C 4.191406 -3.835938 4.492188 -3.710938 4.765625 -3.578125 C 5.046875 -3.453125 5.273438 -3.25 5.453125 -2.96875 C 5.640625 -2.695312 5.734375 -2.363281 5.734375 -1.96875 C 5.734375 -1.363281 5.488281 -0.875 5 -0.5 C 4.519531 -0.132812 3.890625 0.046875 3.109375 0.046875 C 2.578125 0.046875 2.0625 -0.0507812 1.5625 -0.25 C 1.0625 -0.457031 0.628906 -0.726562 0.265625 -1.0625 L 0.765625 -2.078125 C 1.117188 -1.753906 1.503906 -1.503906 1.921875 -1.328125 C 2.347656 -1.148438 2.75 -1.0625 3.125 -1.0625 C 3.539062 -1.0625 3.863281 -1.132812 4.09375 -1.28125 C 4.320312 -1.4375 4.4375 -1.644531 4.4375 -1.90625 C 4.4375 -2.144531 4.34375 -2.347656 4.15625 -2.515625 C 3.96875 -2.679688 3.734375 -2.800781 3.453125 -2.875 C 3.179688 -2.945312 2.878906 -3.035156 2.546875 -3.140625 C 2.222656 -3.253906 1.921875 -3.375 1.640625 -3.5 C 1.359375 -3.625 1.125 -3.820312 0.9375 -4.09375 C 0.757812 -4.363281 0.671875 -4.691406 0.671875 -5.078125 C 0.671875 -5.671875 0.898438 -6.144531 1.359375 -6.5 C 1.828125 -6.851562 2.441406 -7.03125 3.203125 -7.03125 Z M 3.203125 -7.03125 "/></g></g></g><g fill="#ffffff" fill-opacity="1"><g transform="translate(77.523353, 197.245616)"><g><path d="M 5.6875 -5.921875 L 3.46875 -5.921875 L 3.46875 0 L 2.296875 0 L 2.296875 -5.921875 L 0.09375 -5.921875 L 0.09375 -6.984375 L 5.6875 -6.984375 Z M 5.6875 -5.921875 "/></g></g></g><g fill="#ffffff" fill-opacity="1"><g transform="translate(85.038638, 197.245616)"><g><path d="M 0.921875 -6.984375 L 3.78125 -6.984375 C 4.820312 -6.984375 5.679688 -6.648438 6.359375 -5.984375 C 7.046875 -5.328125 7.390625 -4.492188 7.390625 -3.484375 C 7.390625 -2.472656 7.046875 -1.640625 6.359375 -0.984375 C 5.671875 -0.328125 4.800781 0 3.75 0 L 0.921875 0 Z M 2.09375 -5.921875 L 2.09375 -1.0625 L 3.8125 -1.0625 C 4.488281 -1.0625 5.054688 -1.285156 5.515625 -1.734375 C 5.972656 -2.191406 6.203125 -2.769531 6.203125 -3.46875 C 6.203125 -4.175781 5.96875 -4.757812 5.5 -5.21875 C 5.03125 -5.6875 4.453125 -5.921875 3.765625 -5.921875 Z M 2.09375 -5.921875 "/></g></g></g></svg>